<?xml version="1.0" encoding="UTF-8"?>
<svg xmlns="http://www.w3.org/2000/svg" xmlns:xlink="http://www.w3.org/1999/xlink" width="80pt" height="137pt" viewBox="0 0 80 137" version="1.1">
<g id="surface126">
<path style=" stroke:none;fill-rule:nonzero;fill:rgb(100%,0%,0%);fill-opacity:1;" d="M 40 137.320312 C 40 137.320312 60 137.320312 60 137.320312 C 60 137.320312 50 120 50 120 C 50 120 40 137.320312 40 137.320312 Z M 40 137.320312 "/>
<path style=" stroke:none;fill-rule:nonzero;fill:rgb(100%,0%,0%);fill-opacity:1;" d="M 20 137.320312 C 20 137.320312 40 137.320312 40 137.320312 C 40 137.320312 30 120 30 120 C 30 120 20 137.320312 20 137.320312 Z M 20 137.320312 "/>
<path style=" stroke:none;fill-rule:evenodd;fill:rgb(100%,0%,0%);fill-opacity:1;" d="M 60 100 C 60 111.046875 51.046875 120 40 120 C 28.953125 120 20 111.046875 20 100 C 20 88.953125 28.953125 80 40 80 C 51.046875 80 60 88.953125 60 100 Z M 60 100 "/>
<path style=" stroke:none;fill-rule:evenodd;fill:rgb(100%,0%,0%);fill-opacity:1;" d="M 80 40 C 80 62.089844 62.089844 80 40 80 C 17.910156 80 0 62.089844 0 40 C 0 17.910156 17.910156 0 40 0 C 62.089844 0 80 17.910156 80 40 Z M 80 40 "/>
</g>
</svg>
