<?xml version="1.0" encoding="UTF-8"?>
<svg xmlns="http://www.w3.org/2000/svg" xmlns:xlink="http://www.w3.org/1999/xlink" width="180pt" height="30pt" viewBox="0 0 180 30" version="1.1">
<g id="surface131">
<path style=" stroke:none;fill-rule:nonzero;fill:rgb(62.745098%,12.54902%,94.117647%);fill-opacity:1;" d="M 150 0 C 150 0 180 0 180 0 C 180 0 180 30 180 30 C 180 30 150 30 150 30 C 150 30 150 0 150 0 Z M 150 0 "/>
<path style=" stroke:none;fill-rule:nonzero;fill:rgb(0%,0%,100%);fill-opacity:1;" d="M 120 0 C 120 0 150 0 150 0 C 150 0 150 30 150 30 C 150 30 120 30 120 30 C 120 30 120 0 120 0 Z M 120 0 "/>
<path style=" stroke:none;fill-rule:nonzero;fill:rgb(0%,100%,0%);fill-opacity:1;" d="M 90 0 C 90 0 120 0 120 0 C 120 0 120 30 120 30 C 120 30 90 30 90 30 C 90 30 90 0 90 0 Z M 90 0 "/>
<path style=" stroke:none;fill-rule:nonzero;fill:rgb(100%,100%,0%);fill-opacity:1;" d="M 60 0 C 60 0 90 0 90 0 C 90 0 90 30 90 30 C 90 30 60 30 60 30 C 60 30 60 0 60 0 Z M 60 0 "/>
<path style=" stroke:none;fill-rule:nonzero;fill:rgb(100%,64.705882%,0%);fill-opacity:1;" d="M 30 0 C 30 0 60 0 60 0 C 60 0 60 30 60 30 C 60 30 30 30 30 30 C 30 30 30 0 30 0 Z M 30 0 "/>
<path style=" stroke:none;fill-rule:nonzero;fill:rgb(100%,0%,0%);fill-opacity:1;" d="M 0 0 C 0 0 30 0 30 0 C 30 0 30 30 30 30 C 30 30 0 30 0 30 C 0 30 0 0 0 0 Z M 0 0 "/>
</g>
</svg>
