<?xml version="1.0" encoding="UTF-8" standalone="no"?>
<!-- Generator: Adobe Illustrator 24.0.0, SVG Export Plug-In . SVG Version: 6.00 Build 0)  -->

<svg
   xmlns:dc="http://purl.org/dc/elements/1.1/"
   xmlns:cc="http://creativecommons.org/ns#"
   xmlns:rdf="http://www.w3.org/1999/02/22-rdf-syntax-ns#"
   xmlns:svg="http://www.w3.org/2000/svg"
   xmlns="http://www.w3.org/2000/svg"
   xmlns:sodipodi="http://sodipodi.sourceforge.net/DTD/sodipodi-0.dtd"
   xmlns:inkscape="http://www.inkscape.org/namespaces/inkscape"
   version="1.1"
   id="Layer_1"
   x="0px"
   y="0px"
   viewBox="0 0 256 256.00001"
   xml:space="preserve"
   sodipodi:docname="favicon_dark_v2.svg"
   inkscape:version="0.92.4 (5da689c313, 2019-01-14)"
   width="256"
   height="256"><metadata
   id="metadata143"><rdf:RDF><cc:Work
       rdf:about=""><dc:format>image/svg+xml</dc:format><dc:type
         rdf:resource="http://purl.org/dc/dcmitype/StillImage" /><dc:title></dc:title></cc:Work></rdf:RDF></metadata><defs
   id="defs141"><clipPath
     clipPathUnits="userSpaceOnUse"
     id="clipPath7213"><rect
       inkscape:export-filename="C:\code\metacoders-dot-org\metacoders-dot-org-lib\img\rect120.png"
       ry="48"
       inkscape:export-ydpi="6"
       inkscape:export-xdpi="6"
       y="-113.79391"
       x="0"
       height="256"
       width="256"
       id="rect7215"
       style="opacity:1;fill:#00ff00;fill-opacity:1;stroke:none;stroke-width:1;stroke-linecap:round;stroke-linejoin:round;stroke-miterlimit:4;stroke-dasharray:none;stroke-dashoffset:10;stroke-opacity:1" /></clipPath></defs><sodipodi:namedview
   pagecolor="#ffffff"
   bordercolor="#666666"
   borderopacity="1"
   objecttolerance="10"
   gridtolerance="10"
   guidetolerance="10"
   inkscape:pageopacity="0"
   inkscape:pageshadow="2"
   inkscape:window-width="1920"
   inkscape:window-height="1017"
   id="namedview139"
   showgrid="true"
   inkscape:zoom="2"
   inkscape:cx="91.173668"
   inkscape:cy="122.5879"
   inkscape:window-x="1912"
   inkscape:window-y="-8"
   inkscape:window-maximized="1"
   inkscape:current-layer="g950"
   fit-margin-top="0"
   fit-margin-left="0"
   fit-margin-right="0"
   fit-margin-bottom="0"><inkscape:grid
     type="xygrid"
     id="grid6588"
     empspacing="8" /></sodipodi:namedview>
<style
   type="text/css"
   id="style2">
	.st0{display:none;}
	.st1{display:inline;}
	.st2{fill:#010101;}
	.st3{display:inline;fill:#010101;}
	.st4{fill:#EC2326;}
	.st5{fill:#3954A4;}
</style>
<g
   class="st0"
   id="g28"
   style="display:none"
   transform="translate(-257.35999,-315.10306)">
	<g
   class="st1"
   id="g24"
   style="display:inline">
		<path
   class="st2"
   d="m 251.49,416.57 h -9.64 l -18.7,31.53 -18.99,-31.53 h -9.72 v 50.74 h 11.02 v -29.79 l 14.86,24.42 h 5.29 l 14.93,-25.08 0.07,30.45 h 11.02 z"
   id="path4"
   inkscape:connector-curvature="0"
   style="fill:#010101" />
		<path
   class="st2"
   d="m 275.33,437.01 v 9.13 h 23.56 v -9.13 z m 0,-20.44 v 9.42 H 302 v -9.42 z m 0,41.31 v 9.43 h 27.61 v -9.43 z"
   id="path6"
   inkscape:connector-curvature="0"
   style="fill:#010101" />
		<path
   class="st2"
   d="m 306.57,416.57 v 9.57 h 16.23 v 41.17 h 11.74 v -41.17 h 16.24 v -9.57 z"
   id="path8"
   inkscape:connector-curvature="0"
   style="fill:#010101" />
		<path
   class="st2"
   d="m 382.09,416.57 h -11.6 l -22.61,50.74 h 12.03 l 4.49,-10.88 h 23.56 l 4.49,10.88 h 12.33 z m -13.92,30.95 8.05,-19.43 8.04,19.43 z"
   id="path10"
   inkscape:connector-curvature="0"
   style="fill:#010101" />
		<path
   class="st2"
   d="m 116.53,545.15 c -9.49,0 -16.23,-6.67 -16.23,-16.24 0,-9.57 6.74,-16.23 16.23,-16.23 5.08,0 9.35,2.03 12.76,5.94 l 7.54,-6.96 c -4.78,-5.8 -12.11,-8.99 -20.88,-8.99 -15.8,0 -27.54,10.95 -27.54,26.24 0,15.3 11.74,26.24 27.47,26.24 8.84,0 16.17,-3.19 20.95,-9.06 l -7.54,-6.96 c -3.41,3.99 -7.68,6.02 -12.76,6.02 z"
   id="path12"
   inkscape:connector-curvature="0"
   style="fill:#010101" />
		<path
   class="st2"
   d="m 168.21,502.67 c -16.02,0 -27.76,11.17 -27.76,26.24 0,15.08 11.74,26.24 27.76,26.24 15.95,0 27.76,-11.09 27.76,-26.24 0,-15.15 -11.81,-26.24 -27.76,-26.24 z m 0,42.48 c -9.06,0 -15.87,-6.6 -15.87,-16.24 0,-9.64 6.81,-16.23 15.87,-16.23 9.06,0 15.87,6.59 15.87,16.23 0,9.64 -6.81,16.24 -15.87,16.24 z"
   id="path14"
   inkscape:connector-curvature="0"
   style="fill:#010101" />
		<path
   class="st2"
   d="m 227.86,503.54 h -23.05 v 50.74 h 23.05 c 16.6,0 27.98,-10 27.98,-25.37 0,-15.36 -11.38,-25.37 -27.98,-25.37 z m -0.58,41.1 h -10.73 v -31.46 h 10.73 c 10.07,0 16.67,6.02 16.67,15.73 0,9.71 -6.6,15.73 -16.67,15.73 z"
   id="path16"
   inkscape:connector-curvature="0"
   style="fill:#010101" />
		<path
   class="st2"
   d="m 275.33,545.73 v 9.42 h 27.61 v -9.42 z m 0,-41.32 v 9.43 H 302 v -9.43 z m 0,20.44 v 9.14 h 23.56 v -9.14 z"
   id="path18"
   inkscape:connector-curvature="0"
   style="fill:#010101" />
		<path
   class="st2"
   d="m 345.87,538.84 c 6.59,-2.83 10.43,-8.41 10.43,-16.02 0,-11.38 -8.48,-18.41 -22.03,-18.41 h -21.96 v 50.74 h 11.74 v -14.13 h 10.8 l 9.78,14.13 h 12.62 z m -12.25,-7.17 h -9.57 v -17.69 h 9.57 c 7.17,0 10.8,3.26 10.8,8.84 0,5.51 -3.63,8.85 -10.8,8.85 z"
   id="path20"
   inkscape:connector-curvature="0"
   style="fill:#010101" />
		<path
   class="st2"
   d="m 375.28,517.89 c 0,-3.18 2.68,-5.79 9.64,-5.79 4.49,0 9.35,1.3 14.06,3.98 l 3.62,-8.91 c -2.88,-1.82 -6.44,-3.09 -10.23,-3.81 -2.41,-0.46 -4.9,-0.69 -7.38,-0.69 -2.64,0 -5.04,0.24 -7.18,0.69 -9.56,1.99 -14.2,8.07 -14.2,15.11 0,18.85 29.5,12.33 29.5,21.82 0,3.12 -2.83,5.44 -9.79,5.44 -6.09,0 -12.46,-2.18 -16.74,-5.29 l -3.99,8.84 c 4.5,3.48 12.61,5.87 20.66,5.87 14.5,0 21.53,-7.25 21.53,-15.73 0,-18.63 -29.5,-12.18 -29.5,-21.53 z"
   id="path22"
   inkscape:connector-curvature="0"
   style="fill:#010101" />
	</g>
	<polygon
   class="st3"
   points="468.04,383.67 468.04,442.88 486.48,442.88 468.04,461.33 462.06,467.31 437.63,442.88 456.37,442.88 456.37,395.34 275.33,395.34 275.33,576.38 456.37,576.38 456.37,527.79 437.63,527.79 456.37,509.04 462.05,503.36 486.48,527.79 468.04,527.79 468.04,588.05 263.66,588.05 263.66,383.67 "
   id="polygon26"
   style="display:inline;fill:#010101" />
</g>
<g
   class="st0"
   id="g58"
   style="display:none"
   transform="translate(-257.35999,-315.10306)">
	<g
   class="st1"
   id="g50"
   style="display:inline">
		<path
   class="st2"
   d="m 710.84,416.57 h -9.64 l -18.7,31.53 -18.99,-31.53 h -9.72 v 50.74 h 11.02 v -29.79 l 14.86,24.42 h 5.29 l 14.93,-25.08 0.07,30.45 h 11.02 z"
   id="path30"
   inkscape:connector-curvature="0"
   style="fill:#010101" />
		<path
   class="st2"
   d="m 734.68,457.88 v 9.43 h 27.61 v -9.43 z m 0,-41.31 v 9.42 h 26.67 v -9.42 z m 0,20.44 v 9.13 h 23.56 v -9.13 z"
   id="path32"
   inkscape:connector-curvature="0"
   style="fill:#010101" />
		<path
   class="st2"
   d="m 765.92,416.57 v 9.57 h 16.23 v 41.17 h 11.74 v -41.17 h 16.24 v -9.57 z"
   id="path34"
   inkscape:connector-curvature="0"
   style="fill:#010101" />
		<path
   class="st2"
   d="m 841.44,416.57 h -11.6 l -22.61,50.74 h 12.03 l 4.49,-10.88 h 23.56 l 4.49,10.88 h 12.33 z m -13.92,30.95 8.05,-19.43 8.04,19.43 z"
   id="path36"
   inkscape:connector-curvature="0"
   style="fill:#010101" />
		<path
   class="st2"
   d="m 575.88,545.15 c -9.49,0 -16.23,-6.67 -16.23,-16.24 0,-9.57 6.74,-16.23 16.23,-16.23 5.08,0 9.35,2.03 12.76,5.94 l 7.54,-6.96 c -4.78,-5.8 -12.11,-8.99 -20.88,-8.99 -15.8,0 -27.54,10.95 -27.54,26.24 0,15.3 11.74,26.24 27.47,26.24 8.84,0 16.17,-3.19 20.95,-9.06 l -7.54,-6.96 c -3.41,3.99 -7.68,6.02 -12.76,6.02 z"
   id="path38"
   inkscape:connector-curvature="0"
   style="fill:#010101" />
		<path
   class="st2"
   d="m 627.56,502.67 c -16.02,0 -27.76,11.17 -27.76,26.24 0,15.08 11.74,26.24 27.76,26.24 15.95,0 27.76,-11.09 27.76,-26.24 0,-15.15 -11.81,-26.24 -27.76,-26.24 z m 0,42.48 c -9.06,0 -15.87,-6.6 -15.87,-16.24 0,-9.64 6.81,-16.23 15.87,-16.23 9.06,0 15.87,6.59 15.87,16.23 0,9.64 -6.81,16.24 -15.87,16.24 z"
   id="path40"
   inkscape:connector-curvature="0"
   style="fill:#010101" />
		<path
   class="st2"
   d="m 695.29,504.41 c -2.52,-0.57 -5.22,-0.87 -8.08,-0.87 h -23.05 v 50.74 h 23.05 c 16.6,0 27.98,-10 27.98,-25.37 0,-12.71 -7.8,-21.76 -19.9,-24.5 z m -8.66,40.23 H 675.9 v -31.46 h 10.73 c 10.07,0 16.67,6.02 16.67,15.73 0,9.71 -6.6,15.73 -16.67,15.73 z"
   id="path42"
   inkscape:connector-curvature="0"
   style="fill:#010101" />
		<path
   class="st2"
   d="m 734.68,524.85 v 9.14 h 23.56 v -9.14 z m 0,-20.44 v 9.43 h 26.67 v -9.43 z m 0,41.32 v 9.42 h 27.61 v -9.42 z"
   id="path44"
   inkscape:connector-curvature="0"
   style="fill:#010101" />
		<path
   class="st2"
   d="m 805.22,538.84 c 6.59,-2.83 10.43,-8.41 10.43,-16.02 0,-11.38 -8.48,-18.41 -22.03,-18.41 h -21.96 v 50.74 h 11.74 v -14.13 h 10.8 l 9.78,14.13 h 12.62 z m -12.25,-7.17 h -9.57 v -17.69 h 9.57 c 7.17,0 10.8,3.26 10.8,8.84 0,5.51 -3.63,8.85 -10.8,8.85 z"
   id="path46"
   inkscape:connector-curvature="0"
   style="fill:#010101" />
		<path
   class="st2"
   d="m 834.63,517.89 c 0,-3.18 2.68,-5.79 9.64,-5.79 4.49,0 9.35,1.3 14.06,3.98 l 3.62,-8.91 c -2.88,-1.82 -6.44,-3.09 -10.23,-3.81 -2.41,-0.46 -4.9,-0.69 -7.38,-0.69 -2.64,0 -5.04,0.24 -7.18,0.69 -9.56,1.99 -14.2,8.07 -14.2,15.11 0,18.85 29.5,12.33 29.5,21.82 0,3.12 -2.83,5.44 -9.79,5.44 -6.09,0 -12.46,-2.18 -16.74,-5.29 l -3.99,8.84 c 4.5,3.48 12.61,5.87 20.66,5.87 14.5,0 21.53,-7.25 21.53,-15.73 0,-18.63 -29.5,-12.18 -29.5,-21.53 z"
   id="path48"
   inkscape:connector-curvature="0"
   style="fill:#010101" />
	</g>
	<polygon
   class="st3"
   points="734.68,504.41 734.68,576.38 915.72,576.38 915.72,527.79 896.98,527.79 915.72,509.04 921.4,503.36 945.83,527.79 927.39,527.79 927.39,588.05 723.01,588.05 723.01,504.41 "
   id="polygon52"
   style="display:inline;fill:#010101" />
	<polygon
   class="st3"
   points="921.41,467.31 896.98,442.88 945.83,442.88 927.39,461.33 "
   id="polygon54"
   style="display:inline;fill:#010101" />
	<polygon
   class="st3"
   points="723.01,467.31 723.01,383.67 927.39,383.67 927.39,442.88 915.72,442.88 915.72,395.34 734.68,395.34 734.68,467.31 "
   id="polygon56"
   style="display:inline;fill:#010101" />
</g>
<g
   class="st0"
   id="g98"
   style="display:none"
   transform="translate(-257.35999,-315.10306)">
	<polygon
   class="st3"
   points="417.79,811.05 437.34,791.51 437.34,830.59 422.58,815.84 "
   id="polygon60"
   style="display:inline;fill:#010101" />
	<polygon
   class="st3"
   points="79.4,724.07 59.85,743.61 59.85,704.53 74.61,719.29 "
   id="polygon62"
   style="display:inline;fill:#010101" />
	<path
   class="st3"
   d="m 120.53,794.82 c 5.08,0 9.35,2.02 12.76,5.94 v -12.98 c -3.85,-1.94 -8.36,-2.97 -13.34,-2.97 -15.8,0 -27.54,10.95 -27.54,26.24 0,15.29 11.74,26.24 27.47,26.24 5.02,0 9.56,-1.03 13.41,-3 v -13.02 c -3.41,3.99 -7.68,6.02 -12.76,6.02 -9.49,0 -16.23,-6.67 -16.23,-16.24 0,-9.57 6.74,-16.23 16.23,-16.23 z"
   id="path64"
   inkscape:connector-curvature="0"
   style="display:inline;fill:#010101" />
	<path
   class="st3"
   d="m 168.21,784.81 c -16.02,0 -27.76,11.17 -27.76,26.24 0,15.08 11.74,26.24 27.76,26.24 15.95,0 27.76,-11.09 27.76,-26.24 0,-15.15 -11.81,-26.24 -27.76,-26.24 z m 0,42.48 c -9.06,0 -15.87,-6.6 -15.87,-16.24 0,-9.64 6.81,-16.23 15.87,-16.23 9.06,0 15.87,6.59 15.87,16.23 0,9.64 -6.81,16.24 -15.87,16.24 z"
   id="path66"
   inkscape:connector-curvature="0"
   style="display:inline;fill:#010101" />
	<path
   class="st3"
   d="m 235.95,786.55 c -2.52,-0.57 -5.23,-0.87 -8.09,-0.87 h -23.05 v 50.74 h 23.05 c 16.6,0 27.98,-10 27.98,-25.37 0,-12.72 -7.79,-21.76 -19.89,-24.5 z m -8.67,40.23 h -10.73 v -31.46 h 10.73 c 10.07,0 16.67,6.02 16.67,15.73 0,9.71 -6.6,15.73 -16.67,15.73 z"
   id="path68"
   inkscape:connector-curvature="0"
   style="display:inline;fill:#010101" />
	<path
   class="st3"
   d="m 275.33,827.87 v 9.42 h 27.61 v -9.42 z m 23.56,-20.88 h -23.56 v 9.13 h 23.56 z"
   id="path70"
   inkscape:connector-curvature="0"
   style="display:inline;fill:#010101" />
	<polygon
   class="st3"
   points="302,786.55 302,795.98 275.33,795.98 275.33,870.19 263.66,870.19 263.66,786.55 "
   id="polygon72"
   style="display:inline;fill:#010101" />
	<path
   class="st3"
   d="m 345.87,820.98 c 6.59,-2.83 10.43,-8.41 10.43,-16.02 0,-11.38 -8.48,-18.41 -22.03,-18.41 h -21.96 v 50.74 h 11.74 v -14.14 h 10.8 l 9.78,14.14 h 12.62 z m -12.25,-7.17 h -9.57 v -17.69 h 9.57 c 7.17,0 10.8,3.26 10.8,8.84 0,5.51 -3.63,8.85 -10.8,8.85 z"
   id="path74"
   inkscape:connector-curvature="0"
   style="display:inline;fill:#010101" />
	<path
   class="st3"
   d="m 375.28,800.03 c 0,-3.19 2.68,-5.79 9.64,-5.79 4.49,0 9.35,1.3 14.06,3.98 l 3.62,-8.91 c -4.71,-2.97 -11.23,-4.5 -17.61,-4.5 -14.42,0 -21.38,7.18 -21.38,15.8 0,18.85 29.5,12.33 29.5,21.82 0,3.12 -2.83,5.44 -9.79,5.44 -6.09,0 -12.46,-2.18 -16.74,-5.3 l -3.99,8.85 c 4.5,3.48 12.61,5.87 20.66,5.87 14.5,0 21.53,-7.25 21.53,-15.73 0,-18.63 -29.5,-12.18 -29.5,-21.53 z"
   id="path76"
   inkscape:connector-curvature="0"
   style="display:inline;fill:#010101" />
	<rect
   x="453.10999"
   y="665.81"
   class="st3"
   width="11.67"
   height="145.24001"
   id="rect78"
   style="display:inline;fill:#010101" />
	<rect
   x="32.41"
   y="724.07001"
   class="st3"
   width="11.67"
   height="146.12"
   id="rect80"
   style="display:inline;fill:#010101" />
	<rect
   x="32.41"
   y="858.52002"
   class="st3"
   width="231.25"
   height="11.67"
   id="rect82"
   style="display:inline;fill:#010101" />
	<rect
   x="32.41"
   y="718.23999"
   class="st3"
   width="30"
   height="11.67"
   id="rect84"
   style="display:inline;fill:#010101" />
	<rect
   x="434.78"
   y="805.21002"
   class="st3"
   width="30"
   height="11.67"
   id="rect86"
   style="display:inline;fill:#010101" />
	<path
   class="st3"
   d="m 149.46,698.71 h -9.64 l -18.7,31.53 -18.99,-31.53 h -9.72 v 50.73 h 11.02 v -29.78 l 14.86,24.42 h 5.29 l 14.93,-25.08 0.07,30.44 h 11.02 z"
   id="path88"
   inkscape:connector-curvature="0"
   style="display:inline;fill:#010101" />
	<path
   class="st3"
   d="m 173.3,740.02 v -11.74 h 23.56 v -9.13 H 173.3 v -11.02 h 26.67 v -9.42 h -38.34 v 50.73 h 39.28 v -9.42 z"
   id="path90"
   inkscape:connector-curvature="0"
   style="display:inline;fill:#010101" />
	<path
   class="st3"
   d="m 204.54,698.71 v 9.57 h 16.23 v 41.16 h 11.74 v -41.16 h 16.24 v -9.57 z"
   id="path92"
   inkscape:connector-curvature="0"
   style="display:inline;fill:#010101" />
	<path
   class="st3"
   d="m 280.06,698.71 h -11.6 l -22.61,50.73 h 12.03 l 4.49,-10.87 h 23.56 l 4.49,10.87 h 12.33 z m -13.92,30.95 8.05,-19.43 8.04,19.43 z"
   id="path94"
   inkscape:connector-curvature="0"
   style="display:inline;fill:#010101" />
	<polygon
   class="st3"
   points="464.78,665.81 464.78,677.48 173.3,677.48 173.3,749.44 161.63,749.44 161.63,665.81 "
   id="polygon96"
   style="display:inline;fill:#010101" />
</g>













<g
   id="g950"
   transform="translate(0,113.79391)"><g
     id="g7211"
     transform="translate(0,-2.8344726e-6)"
     clip-path="url(#clipPath7213)"
     inkscape:export-xdpi="6.0000005"
     inkscape:export-ydpi="6.0000005"><g
       id="g7205"
       inkscape:export-xdpi="48.000004"
       inkscape:export-ydpi="48.000004"><rect
         style="opacity:1;fill:#343a40;fill-opacity:1;stroke:none;stroke-width:1;stroke-linecap:round;stroke-linejoin:round;stroke-miterlimit:4;stroke-dasharray:none;stroke-dashoffset:10;stroke-opacity:1"
         id="rect6590"
         width="256"
         height="256"
         x="0"
         y="-113.79391"
         inkscape:export-xdpi="6"
         inkscape:export-ydpi="6"
         inkscape:export-filename="C:\code\metacoders-dot-org\metacoders-dot-org-lib\img\rect120.png" /></g><path
       inkscape:export-filename="C:\code\metacoders-dot-org\metacoders-dot-org-lib\img\rect120.png"
       inkscape:export-ydpi="48.000004"
       inkscape:export-xdpi="48.000004"
       style="fill:#1581c2;fill-opacity:1;stroke-width:4.84286737"
       d="m 176,-105.79391 -64,64.000006 64,64 v -40 h 16 v 64 l -56,-3e-6 24,24 -24,23.999997 104,3e-6 v -159.983517 -0.047 l -64,0.0305 z"
       id="rect116"
       inkscape:connector-curvature="0"
       sodipodi:nodetypes="cccccccccccccc" /><path
       inkscape:export-filename="C:\code\metacoders-dot-org\metacoders-dot-org-lib\img\rect120.png"
       inkscape:export-ydpi="48.000004"
       inkscape:export-xdpi="48.000004"
       style="fill:#f37a1f;fill-opacity:1;stroke-width:4.84286737"
       d="m 16,-65.79391 v 160 0.008 l 64,-0.008 v 40 L 144,70.206093 80,6.2060926 V 46.206093 H 64 v -64 l 56,3e-6 -24,-24 24,-24 z"
       id="rect120"
       inkscape:connector-curvature="0"
       sodipodi:nodetypes="cccccccccccccc" /></g></g>
<g
   id="g132"
   style="fill:#f9a21d;fill-opacity:1"
   transform="matrix(1.0041384,0,0,1.0041384,-259.42918,-317.17225)">
	
</g>


</svg>