<svg height='75px' width='100px'  fill="#000000" xmlns="http://www.w3.org/2000/svg" xmlns:xlink="http://www.w3.org/1999/xlink" version="1.1" x="0px" y="0px" viewBox="-20 -20 104 104" style="enable-background:new 0 0 64 64;" xml:space="preserve"><polygon points="10,50 8,50 8,52 6,52 6,54 8,54 8,56 10,56 10,54 12,54 12,52 10,52 "></polygon><path d="M22,56c1.654,0,3-1.346,3-3s-1.346-3-3-3s-3,1.346-3,3S20.346,56,22,56z M22,52c0.552,0,1,0.449,1,1s-0.448,1-1,1  s-1-0.449-1-1S21.448,52,22,52z"></path><polygon points="42,50 40,50 40,52 38,52 38,54 40,54 40,56 42,56 42,54 44,54 44,52 42,52 "></polygon><path d="M54,56c1.654,0,3-1.346,3-3s-1.346-3-3-3s-3,1.346-3,3S52.346,56,54,56z M54,52c0.552,0,1,0.449,1,1s-0.448,1-1,1  s-1-0.449-1-1S53.448,52,54,52z"></path><path d="M13,44v2h-3c-4.411,0-8,3.589-8,8s3.589,8,8,8c0.266,0,0.52-0.105,0.707-0.293L12.414,60h7.172l1.707,1.707  C21.48,61.895,21.734,62,22,62c4.411,0,8-3.589,8-8s-3.589-8-8-8h-3v-2c0-1.103-0.897-2-2-2v-3c0-0.552-0.447-1-1-1H6V19h10v4  c0,0.552,0.447,1,1,1h7v2H11c-0.553,0-1,0.448-1,1v8c0,0.552,0.447,1,1,1h42c0.553,0,1-0.448,1-1v-8c0-0.552-0.447-1-1-1H40v-2h7  c0.553,0,1-0.448,1-1v-4h10v19H48c-0.553,0-1,0.448-1,1v3c-1.103,0-2,0.897-2,2v2h-3c-4.411,0-8,3.589-8,8s3.589,8,8,8  c0.266,0,0.52-0.105,0.707-0.293L44.414,60h7.172l1.707,1.707C53.48,61.895,53.734,62,54,62c4.411,0,8-3.589,8-8s-3.589-8-8-8h-3v-2  c0-1.103-0.897-2-2-2v-2h10c0.553,0,1-0.448,1-1V18c0-0.552-0.447-1-1-1H48V3c0-0.552-0.447-1-1-1H17c-0.553,0-1,0.448-1,1v14H5  c-0.553,0-1,0.448-1,1v21c0,0.552,0.447,1,1,1h10v2C13.897,42,13,42.897,13,44z M60,54c0,3.174-2.477,5.78-5.599,5.987l-1.694-1.694  C52.52,58.105,52.266,58,52,58h-8c-0.266,0-0.52,0.105-0.707,0.293l-1.694,1.694C38.477,59.78,36,57.174,36,54c0-3.309,2.691-6,6-6  h4h4h4C57.309,48,60,50.691,60,54z M47,46v-2h2v2H47z M52,34H12v-6h13h14h13V34z M38,26H26v-2h12V26z M18,4h28v18h-7H25h-7V4z   M28,54c0,3.174-2.477,5.78-5.599,5.987l-1.694-1.694C20.52,58.105,20.266,58,20,58h-8c-0.266,0-0.52,0.105-0.707,0.293  l-1.694,1.694C6.477,59.78,4,57.174,4,54c0-3.309,2.691-6,6-6h4h4h4C25.309,48,28,50.691,28,54z M15,46v-2h2v2H15z"></path><path d="M31.348,15.675c0.119-0.237,0.139-0.512,0.056-0.764c-0.084-0.251-0.265-0.46-0.502-0.579L28.236,13l2.665-1.333  c0.237-0.119,0.418-0.327,0.502-0.579c0.083-0.252,0.063-0.527-0.056-0.764C30.32,8.274,28.271,7,26,7c-3.309,0-6,2.691-6,6  s2.691,6,6,6C28.271,19,30.32,17.726,31.348,15.675z M22,13c0-2.206,1.794-4,4-4c1.171,0,2.254,0.512,3.002,1.381l-3.449,1.724  C25.214,12.275,25,12.621,25,13s0.214,0.725,0.553,0.895l3.449,1.724C28.254,16.488,27.171,17,26,17C23.794,17,22,15.206,22,13z"></path><rect x="34" y="12" width="2" height="2"></rect><rect x="38" y="12" width="2" height="2"></rect><rect x="42" y="12" width="2" height="2"></rect></svg>
