<svg height='100px' width='100px'  fill="#000000" xmlns="http://www.w3.org/2000/svg" xmlns:xlink="http://www.w3.org/1999/xlink" version="1.1" x="0px" y="0px" viewBox="0 0 100 100" style="enable-background:new 0 0 100 100;" xml:space="preserve"><path d="M86.631,31.267c-0.391-0.391-1.023-0.391-1.414,0L62.785,53.699L40.353,31.267c-0.391-0.391-1.023-0.391-1.414,0  c-4.996,4.996-4.996,13.125,0,18.12l14.079,14.079l-5.926,5.926c-3.775-0.354-7.356,1.225-9.666,4.288  c-2.918,3.868-2.833,9.424,0.202,13.211c1.936,2.416,4.805,3.898,7.872,4.067c0.198,0.011,0.396,0.017,0.593,0.017  c2.86,0,5.623-1.137,7.654-3.169c2.295-2.295,3.415-5.421,3.112-8.645l5.926-5.926l5.926,5.926c-0.302,3.223,0.817,6.35,3.112,8.645  c2.109,2.109,4.879,3.164,7.65,3.164c2.771,0,5.541-1.055,7.65-3.164c4.218-4.218,4.218-11.082,0-15.3  c-2.295-2.295-5.422-3.417-8.645-3.112l-5.927-5.926l14.079-14.079C91.627,44.392,91.627,36.263,86.631,31.267z M40.353,47.973  c-3.978-3.978-4.203-10.309-0.675-14.552l21.693,21.692l-6.939,6.939L40.353,47.973z M77.407,71.148  c0.222,0.222,0.533,0.33,0.845,0.283c2.771-0.383,5.491,0.521,7.458,2.487c3.438,3.438,3.438,9.034,0,12.472s-9.033,3.439-12.472,0  c-1.967-1.967-2.873-4.686-2.487-7.458c0.043-0.311-0.062-0.624-0.283-0.845l-6.268-6.268l6.939-6.939L77.407,71.148z   M55.103,78.088c-0.222,0.222-0.327,0.535-0.283,0.845c0.386,2.772-0.521,5.491-2.487,7.458c-1.771,1.77-4.214,2.709-6.724,2.57  c-2.536-0.14-4.816-1.319-6.421-3.321c-2.471-3.083-2.541-7.607-0.166-10.756c1.711-2.268,4.277-3.54,7.037-3.54  c0.416,0,0.837,0.029,1.26,0.087c0.307,0.047,0.623-0.062,0.845-0.283l37.728-37.728c3.528,4.244,3.303,10.575-0.675,14.552  L55.103,78.088z"></path><path d="M79.54,86.697c1.765,0,3.424-0.688,4.672-1.936c2.576-2.576,2.576-6.768,0-9.344c-1.248-1.248-2.907-1.936-4.672-1.936  s-3.424,0.688-4.672,1.936c-2.576,2.576-2.576,6.768,0,9.344C76.116,86.009,77.775,86.697,79.54,86.697z M76.282,76.831  c0.87-0.87,2.027-1.35,3.258-1.35c1.231,0,2.388,0.479,3.258,1.35c1.796,1.796,1.796,4.72,0,6.516c-0.87,0.87-2.027,1.35-3.258,1.35  c-1.23,0-2.388-0.479-3.258-1.35C74.486,81.551,74.486,78.627,76.282,76.831z"></path><path d="M41.706,75.417c-2.576,2.576-2.576,6.768,0,9.344c1.288,1.288,2.98,1.932,4.672,1.932c1.692,0,3.384-0.644,4.672-1.932  c2.576-2.576,2.576-6.768,0-9.344C48.474,72.842,44.282,72.841,41.706,75.417z M49.636,83.347c-1.796,1.796-4.718,1.797-6.516,0  c-1.796-1.796-1.796-4.72,0-6.516c0.898-0.898,2.078-1.347,3.258-1.347c1.18,0,2.36,0.449,3.258,1.347  C51.432,78.627,51.432,81.551,49.636,83.347z"></path><path d="M62.833,59.974c-1.791,0-3.248,1.457-3.248,3.248s1.457,3.249,3.248,3.249s3.249-1.458,3.249-3.249  S64.624,59.974,62.833,59.974z M62.833,64.471c-0.688,0-1.248-0.56-1.248-1.249c0-0.688,0.56-1.248,1.248-1.248  c0.688,0,1.249,0.56,1.249,1.248C64.082,63.911,63.521,64.471,62.833,64.471z"></path><path d="M53.296,26.065l14.558,5.148c0.464,0.164,0.944,0.246,1.422,0.246c0.626,0,1.25-0.14,1.832-0.417  c1.026-0.49,1.799-1.35,2.179-2.422l2.375-6.719c0.379-1.072,0.318-2.227-0.172-3.253s-1.35-1.799-2.421-2.179L58.51,11.321  c-1.072-0.378-2.227-0.318-3.253,0.172c-1.026,0.49-1.799,1.35-2.179,2.422l-2.375,6.718C49.92,22.846,51.083,25.282,53.296,26.065z   M52.588,21.3l2.375-6.718c0.201-0.568,0.611-1.024,1.155-1.284c0.308-0.147,0.639-0.222,0.971-0.222  c0.253,0,0.507,0.043,0.753,0.13l14.558,5.148c0.568,0.201,1.024,0.611,1.284,1.155s0.292,1.156,0.091,1.724L71.4,27.953  c-0.201,0.568-0.611,1.024-1.155,1.284c-0.543,0.26-1.156,0.292-1.724,0.091l-14.558-5.148C52.79,23.765,52.173,22.473,52.588,21.3z  "></path><path d="M11.125,75.75h0.276l6.224,11.353V89c0,0.552,0.448,1,1,1s1-0.448,1-1v-1.927l6.104-11.323H26c0.552,0,1-0.448,1-1V43.073  c0.419,2.35,1.499,4.293,3.665,5.329c0.139,0.066,0.286,0.098,0.431,0.098c0.373,0,0.731-0.209,0.903-0.568  c0.238-0.499,0.027-1.096-0.471-1.334c-4.96-2.372-2.048-12.531-0.459-18.072c0.833-2.906,0.65-5.097-0.543-6.511  c-1.101-1.304-2.71-1.51-3.525-1.524V18.25c0-0.552-0.448-1-1-1h-0.864v-3.253c0-2.204-1.793-3.997-3.997-3.997h-5.153  c-2.204,0-3.997,1.793-3.997,3.997v3.253h-0.864c-0.552,0-1,0.448-1,1v56.5C10.125,75.302,10.573,75.75,11.125,75.75z M12.125,19.25  H25v54.5H12.125V19.25z M18.61,84.74l-4.929-8.99h9.775L18.61,84.74z M28.998,23.305c0.726,0.86,0.777,2.475,0.125,4.752  c-0.719,2.509-1.695,5.918-2.122,9.267V22.489C27.472,22.5,28.412,22.612,28.998,23.305z M13.989,13.997  c0-1.101,0.896-1.997,1.997-1.997h5.153c1.101,0,1.997,0.896,1.997,1.997v3.253h-9.147V13.997z"></path><path d="M20.875,23.303h-4.5c-0.552,0-1,0.448-1,1v23.834c0,0.552,0.448,1,1,1h4.5c0.552,0,1-0.448,1-1V24.303  C21.875,23.75,21.427,23.303,20.875,23.303z M19.875,47.137h-2.5V25.303h2.5V47.137z"></path></svg>