<?xml version="1.0" encoding="UTF-8" standalone="no"?>
<!-- Generator: Adobe Illustrator 24.0.0, SVG Export Plug-In . SVG Version: 6.00 Build 0)  -->

<svg
   xmlns:dc="http://purl.org/dc/elements/1.1/"
   xmlns:cc="http://creativecommons.org/ns#"
   xmlns:rdf="http://www.w3.org/1999/02/22-rdf-syntax-ns#"
   xmlns:svg="http://www.w3.org/2000/svg"
   xmlns="http://www.w3.org/2000/svg"
   xmlns:sodipodi="http://sodipodi.sourceforge.net/DTD/sodipodi-0.dtd"
   xmlns:inkscape="http://www.inkscape.org/namespaces/inkscape"
   version="1.1"
   id="Layer_1"
   x="0px"
   y="0px"
   viewBox="0 0 411.28171 272.27063"
   xml:space="preserve"
   sodipodi:docname="logo-tall.svg"
   width="411.28171"
   height="272.27063"
   inkscape:version="0.92.4 (5da689c313, 2019-01-14)"><metadata
   id="metadata45"><rdf:RDF><cc:Work
       rdf:about=""><dc:format>image/svg+xml</dc:format><dc:type
         rdf:resource="http://purl.org/dc/dcmitype/StillImage" /><dc:title></dc:title></cc:Work></rdf:RDF></metadata><defs
   id="defs43" /><sodipodi:namedview
   pagecolor="#ffffff"
   bordercolor="#666666"
   borderopacity="1"
   objecttolerance="10"
   gridtolerance="10"
   guidetolerance="10"
   inkscape:pageopacity="0"
   inkscape:pageshadow="2"
   inkscape:window-width="1008"
   inkscape:window-height="882"
   id="namedview41"
   showgrid="false"
   fit-margin-top="0"
   fit-margin-left="0"
   fit-margin-right="0"
   fit-margin-bottom="0"
   inkscape:zoom="1"
   inkscape:cx="256.26984"
   inkscape:cy="303.17817"
   inkscape:window-x="0"
   inkscape:window-y="0"
   inkscape:window-maximized="0"
   inkscape:current-layer="g38" />
<style
   type="text/css"
   id="style2">
	.st0{fill:#272361;}
	.st1{fill:#EC2227;}
</style>
<g
   id="g38"
   transform="translate(-294.35914,-363.87)">
	
	
	
	
	
	
	
	
	
	<g
   id="g883"><g
     style="fill:#1581c2;fill-opacity:1"
     id="g868"><path
       style="fill:#1581c2;fill-opacity:1"
       d="m 377.5293,380.51953 c -10.75,0 -19.70867,4.3011 -24.13868,10.87109 -3.93999,-8.00999 -12.43101,-10.75 -20.79101,-10.75 -7.53,-0.24 -15.17008,2.87008 -19.83008,9.08008 l -1.30859,-8.60156 h -17.0918 c 0,0 0.01,239.55078 0,239.55078 v 0 h 42.2207 v 15.4707 l 25.26954,-25.28124 -25.26954,-25.25 v 15.46093 h -22.6289 V 412.90039 c 0,-10.87 6.08914,-14.58008 13.61914,-14.58008 8.24,0 12.66992,4.41906 12.66992,15.28907 v 52.08984 h 19.59961 V 413.5 c 0.24,-12.07 5.85086,-15.16992 13.38086,-15.16992 8.12,0 12.54883,4.41906 12.54883,15.28906 v 52.0918 h 19.60156 v -52.0918 c -0.01,-22.94 -10.41156,-33.09961 -27.85156,-33.09961 z"
       id="rect8"
       inkscape:connector-curvature="0"
       sodipodi:nodetypes="sccccccccccccccsscccsscccs" /><path
       style="fill:#1581c2;fill-opacity:1"
       d="m 652.5293,397.84961 -25.26953,25.25977 v 0.0215 l 25.26953,25.25 v -15.4707 h 33.50976 V 601.07031 H 368.69922 l 9.5,9.5 -9.63867,10.09961 h 337.07031 v 0 0 -207.34961 H 652.5293 Z"
       id="rect14"
       inkscape:connector-curvature="0"
       sodipodi:nodetypes="cccccccccccccccc" /><path
       style="fill:#1581c2;fill-opacity:1"
       class="st0"
       d="m 489.32,439.44 c 0,17.77 -10.6,26.22 -32.81,26.22 -22.22,0 -32.82,-10.17 -32.82,-32.96 v -19.2 c 0,-21.21 10.6,-32.96 32.82,-32.96 22.21,0 32.81,10.17 32.81,32.96 v 16.77 h -45.86 v 2.15 c 0,13.61 5.3,16.19 13.33,16.19 9.31,0 13.18,-3.3 13.18,-9.17 z m -45.86,-25.36 h 26.8 c 0,-10.61 -2.01,-16.48 -13.19,-16.48 -11.6,0 -13.61,6.3 -13.61,16.48 z"
       id="path16"
       inkscape:connector-curvature="0" /><path
       style="fill:#1581c2;fill-opacity:1"
       class="st0"
       d="m 505.56,366.02 19.63,-2.15 v 16.48 h 14.33 v 17.91 h -14.33 v 35.68 c 0,9.32 1.44,15.62 14.61,14.04 v 17.2 c -24.93,2.72 -34.25,-5.88 -34.25,-30.96 v -68.2 z"
       id="path18"
       inkscape:connector-curvature="0" /><path
       style="fill:#1581c2;fill-opacity:1"
       class="st0"
       d="m 552.01,409.06 c -1.29,-21.06 10.03,-29.52 30.24,-29.52 22.07,0 31.67,11.04 31.67,32.96 v 52.02 h -16.05 l -1.86,-9.74 c -4.73,6.59 -12.75,10.89 -22.21,10.89 -13.9,0 -24.36,-8.02 -24.36,-23.93 0,-19.92 16.63,-27.81 45.72,-25.8 0,-12.61 -2.44,-18.91 -12.75,-18.91 -8.6,0 -11.75,3.01 -11.61,12.04 h -18.79 z m 16.05,31.1 c 0,5.59 4.87,7.46 11.61,7.46 11.46,0 14.61,-8.31 15.48,-16.77 -20.06,-2.01 -27.09,2.57 -27.09,9.31 z"
       id="path20"
       inkscape:connector-curvature="0" /></g><g
     style="fill:#f37a1f;fill-opacity:1"
     id="g34">
		<path
   style="fill:#f37a1f;fill-opacity:1"
   id="path22"
   d="m 374.16,535.5 c 0,-6.93 -2.49,-10.35 -9.52,-10.35 -7.86,0 -10.14,4.34 -10.14,11.9 v 13.24 c 0,7.55 1.96,11.9 9.41,11.9 7.45,0 10.14,-3.21 10.24,-10.45 h 13.45 c 0,16.45 -7.66,23.08 -23.69,23.08 -16.03,0 -23.69,-7.35 -23.69,-24.11 v -13.66 c 0,-16.45 8.07,-24.52 24.11,-24.52 16.04,0 23.28,6.52 23.28,22.97 z"
   class="st1"
   inkscape:connector-curvature="0" />
		<path
   style="fill:#f37a1f;fill-opacity:1"
   id="path24"
   d="m 397.47,551.02 v -14.69 c 0,-16.04 7.66,-23.8 23.69,-23.8 16.04,0 23.69,7.35 23.69,23.8 v 14.69 c 0,16.45 -7.66,23.8 -23.69,23.8 -16.03,0 -23.69,-7.35 -23.69,-23.8 z m 33.11,-0.72 v -13.24 c 0,-7.55 -1.97,-11.9 -9.41,-11.9 -7.45,0 -9.41,4.34 -9.41,11.9 v 13.24 c 0,7.55 1.96,11.9 9.41,11.9 7.44,0 9.41,-4.35 9.41,-11.9 z"
   class="st1"
   inkscape:connector-curvature="0" />
		<path
   style="fill:#f37a1f;fill-opacity:1"
   id="path26"
   d="m 491.14,574.51 -1.03,-6.73 c -2.38,4.35 -7.45,7.04 -14.38,7.04 -12.01,0 -20.08,-6.62 -20.08,-23.59 V 535.5 c 0,-14.38 6.93,-22.76 20.49,-22.76 4.97,0 10.14,1.34 12.52,5.38 v -23.28 h 14.17 v 79.67 z m -21.31,-38.39 v 14.38 c 0,8.8 3.62,11.69 9.21,11.69 7.03,0 9.62,-5.17 9.62,-12.21 v -13.97 c 0,-7.35 -3.52,-10.14 -9.21,-10.14 -6.1,0.01 -9.62,2.9 -9.62,10.25 z"
   class="st1"
   inkscape:connector-curvature="0" />
		<path
   style="fill:#f37a1f;fill-opacity:1"
   id="path28"
   d="m 563.7,555.89 c 0,12.83 -7.65,18.93 -23.69,18.93 -16.04,0 -23.69,-7.35 -23.69,-23.8 v -13.87 c 0,-15.31 7.65,-23.8 23.69,-23.8 16.04,0 23.69,7.35 23.69,23.8 v 12.11 h -33.11 v 1.55 c 0,9.83 3.83,11.69 9.63,11.69 6.72,0 9.52,-2.38 9.52,-6.62 h 13.96 z m -33.11,-18.32 h 19.35 c 0,-7.66 -1.45,-11.9 -9.52,-11.9 -8.38,0 -9.83,4.56 -9.83,11.9 z"
   class="st1"
   inkscape:connector-curvature="0" />
		<path
   style="fill:#f37a1f;fill-opacity:1"
   id="path30"
   d="m 606.05,528.36 c -9.21,-1.24 -16.45,2.38 -16.45,11.48 v 34.98 h -14.17 v -61.15 h 13.04 l 0.62,6.42 c 2.49,-4.24 9.41,-7.97 16.97,-6.73 v 15 z"
   class="st1"
   inkscape:connector-curvature="0" />
		<path
   style="fill:#f37a1f;fill-opacity:1"
   id="path32"
   d="m 645.19,532.6 c 0,-4.65 -3.62,-6.72 -8.17,-6.72 -5.48,0 -8.8,2.17 -8.8,6.42 0,6.72 7.03,5.79 15.21,6.72 8.17,0.93 16.35,5.8 16.35,16.66 0,13.34 -10.45,19.14 -23.59,19.14 -14.48,0 -23.18,-7.35 -23.18,-19.14 h 14.39 c 0.31,4.24 2.59,6.72 9.41,6.72 5.69,0 8.58,-3.21 8.58,-6.21 0,-5.17 -6.72,-5.27 -14.07,-6.2 -8.9,-1.14 -17.49,-4.97 -17.49,-16.97 0,-13.76 9.83,-19.87 23.07,-19.87 15,0 22.14,8.49 22.14,19.45 z"
   class="st1"
   inkscape:connector-curvature="0" />
	</g></g>
	
</g>
</svg>