<svg height='75px' width='100px'  fill="#000000" xmlns="http://www.w3.org/2000/svg" xmlns:xlink="http://www.w3.org/1999/xlink" xml:space="preserve" style="shape-rendering:geometricPrecision;text-rendering:geometricPrecision;image-rendering:optimizeQuality;" viewBox="0 0 6.827 6.827" x="0px" y="0px" fill-rule="evenodd" clip-rule="evenodd"><defs><style type="text/css">

    .fil1 {fill:none}
    .fil0 {fill:#000000;fill-rule:nonzero}

  </style></defs><g><g><g><g><path class="fil0" d="M1.57154 2.10785c0.0104252,-0.0204055 0.00233858,-0.0454055 -0.0180669,-0.0558307 -0.0204055,-0.0104252 -0.0454055,-0.00233858 -0.0558307,0.0180669l-0.302252 0.589c-0.0104252,0.0204055 -0.00233858,0.0454055 0.0180669,0.0558307 0.0204055,0.0104252 0.0454055,0.00233858 0.0558307,-0.0180669l0.302252 -0.589zm-0.319409 0.952921c-0.00844882,-0.0213031 -0.0325709,-0.0317244 -0.053874,-0.0232756 -0.0213031,0.00844882 -0.0317244,0.0325709 -0.0232756,0.053874l0.262563 0.657717c0.00844882,0.0213031 0.0325709,0.0317244 0.053874,0.0232756 0.0213031,-0.00844882 0.0317244,-0.0325709 0.0232756,-0.053874l-0.262563 -0.657717zm0.373823 0.664461c-0.0109646,0.0201339 -0.0035315,0.0453543 0.0166024,0.0563189 0.0201339,0.0109646 0.0453543,0.0035315 0.0563189,-0.0166024l0.433528 -0.791921c0.0109646,-0.0201339 0.0035315,-0.0453543 -0.0166024,-0.0563189 -0.0201339,-0.0109646 -0.0453543,-0.0035315 -0.0563189,0.0166024l-0.433528 0.791921zm0.656189 -1.17154c-0.0121339,0.0194134 -0.00622835,0.0449961 0.013185,0.0571299 0.0194134,0.0121339 0.0449961,0.00622835 0.0571299,-0.013185l0.57439 -0.916587c0.0121339,-0.0194134 0.00622835,-0.0449961 -0.013185,-0.0571299 -0.0194134,-0.0121339 -0.0449961,-0.00622835 -0.0571299,0.013185l-0.57439 0.916587zm0.882992 -0.922209c-0.0128543,-0.0189646 -0.0386535,-0.0239213 -0.0576181,-0.0110669 -0.0189646,0.0128543 -0.0239213,0.0386535 -0.0110669,0.0576181l0.260717 0.384449c0.0128543,0.0189646 0.0386535,0.0239213 0.0576181,0.0110669 0.0189646,-0.0128543 0.0239213,-0.0386535 0.0110669,-0.0576181l-0.260717 -0.384449zm0.293039 0.804449c0.00979528,-0.0207638 0.000905512,-0.0455433 -0.0198583,-0.0553386 -0.0207638,-0.00979528 -0.0455433,-0.000905512 -0.0553386,0.0198583l-0.284512 0.600075c-0.00979528,0.0207638 -0.000905512,0.0455433 0.0198583,0.0553386 0.0207638,0.00979528 0.0455433,0.000905512 0.0553386,-0.0198583l0.284512 -0.600075zm-0.210748 0.693083c-0.0224685,0.00485039 -0.036752,0.0270079 -0.0319016,0.0494764 0.00485039,0.0224685 0.0270079,0.036752 0.0494764,0.0319016l0.799575 -0.173335c0.0224685,-0.00485039 0.036752,-0.0270079 0.0319016,-0.0494764 -0.00485039,-0.0224685 -0.0270079,-0.036752 -0.0494764,-0.0319016l-0.799575 0.173335zm0.975224 -0.396862c0.000535433,0.0229213 0.0195591,0.041063 0.0424803,0.0405276 0.0229213,-0.000535433 0.041063,-0.0195591 0.0405276,-0.0424803l-0.0231811 -0.910012c-0.000535433,-0.0229213 -0.0195591,-0.041063 -0.0424803,-0.0405276 -0.0229213,0.000535433 -0.041063,0.0195591 -0.0405276,0.0424803l0.0231811 0.910012zm0.22128 -1.05156c-0.0195945,-0.0118622 -0.0451063,-0.00559449 -0.0569685,0.014 -0.0118622,0.0195945 -0.00559449,0.0451063 0.014,0.0569685l0.698862 0.424902c0.0195945,0.0118622 0.0451063,0.00559449 0.0569685,-0.014 0.0118622,-0.0195945 0.00559449,-0.0451063 -0.014,-0.0569685l-0.698862 -0.424902zm0.970543 0.770146c-0.00691732,-0.0218425 -0.0302402,-0.033937 -0.0520827,-0.0270197 -0.0218425,0.00691732 -0.033937,0.0302402 -0.0270197,0.0520827l0.253138 0.793177c0.00691732,0.0218425 0.0302402,0.033937 0.0520827,0.0270197 0.0218425,-0.00691732 0.033937,-0.0302402 0.0270197,-0.0520827l-0.253138 -0.793177zm0.137634 1.18559c0.0177047,-0.0145591 0.0202559,-0.0407244 0.00569685,-0.0584291 -0.0145591,-0.0177047 -0.0407244,-0.0202559 -0.0584291,-0.00569685l-0.64078 0.528358c-0.0177047,0.0145591 -0.0202559,0.0407244 -0.00569685,0.0584291 0.0145591,0.0177047 0.0407244,0.0202559 0.0584291,0.00569685l0.64078 -0.528358zm-1.05726 0.661142c0.0229213,0.00161417 0.0428189,-0.0156535 0.0444331,-0.0385748 0.00161417,-0.0229213 -0.0156535,-0.0428189 -0.0385748,-0.0444331l-0.859528 -0.0626063c-0.0229213,-0.00161417 -0.0428189,0.0156535 -0.0444331,0.0385748 -0.00161417,0.0229213 0.0156535,0.0428189 0.0385748,0.0444331l0.859528 0.0626063zm-1.28142 -0.0362283c0.022563,-0.00449213 0.0372087,-0.0264291 0.0327165,-0.0489921 -0.00449213,-0.022563 -0.0264291,-0.0372087 -0.0489921,-0.0327165l-0.557803 0.111559c-0.022563,0.00449213 -0.0372087,0.0264291 -0.0327165,0.0489921 0.00449213,0.022563 0.0264291,0.0372087 0.0489921,0.0327165l0.557803 -0.111559z"></path><path class="fil0" d="M1.77164 3.9979c-0.0204921,-0.0102441 -0.0454213,-0.00193701 -0.0556654,0.0185551 -0.0102441,0.0204921 -0.00193701,0.0454213 0.0185551,0.0556654l0.483929 0.241961c0.0204921,0.0102441 0.0454213,0.00193701 0.0556654,-0.0185551 0.0102441,-0.0204921 0.00193701,-0.0454213 -0.0185551,-0.0556654l-0.483929 -0.241961z"></path><path class="fil0" d="M2.86339 3.34914c0.0206732,-0.00997638 0.0293465,-0.0348307 0.0193701,-0.0555039 -0.00997638,-0.0206732 -0.0348307,-0.0293465 -0.0555039,-0.0193701l-1.0911 0.529787c-0.0206732,0.00997638 -0.0293465,0.0348307 -0.0193701,0.0555039 0.00997638,0.0206732 0.0348307,0.0293465 0.0555039,0.0193701l1.0911 -0.529787z"></path><path class="fil0" d="M2.81063 1.57741c0.0219291,-0.00664961 0.0343189,-0.0298268 0.0276693,-0.0517559 -0.00664961,-0.0219291 -0.0298268,-0.0343189 -0.0517559,-0.0276693l-0.95472 0.292382c-0.0219291,0.00664961 -0.0343189,0.0298268 -0.0276693,0.0517559 0.00664961,0.0219291 0.0298268,0.0343189 0.0517559,0.0276693l0.95472 -0.292382z"></path><path class="fil0" d="M4.01403 1.62742c0.0229213,0.00170472 0.0428898,-0.0154921 0.0445945,-0.0384134 0.00170472,-0.0229213 -0.0154921,-0.0428898 -0.0384134,-0.0445945l-0.79663 -0.0599764c-0.0229213,-0.00170472 -0.0428898,0.0154921 -0.0445945,0.0384134 -0.00170472,0.0229213 0.0154921,0.0428898 0.0384134,0.0445945l0.79663 0.0599764z"></path><path class="fil0" d="M5.14956 2.41098c0.0190551,-0.0127638 0.0241535,-0.038563 0.0113898,-0.0576181 -0.0127638,-0.0190551 -0.038563,-0.0241535 -0.0576181,-0.0113898l-0.674819 0.451736c-0.0190551,0.0127638 -0.0241535,0.038563 -0.0113898,0.0576181 0.0127638,0.0190551 0.038563,0.0241535 0.0576181,0.0113898l0.674819 -0.451736zm-0.770406 0.733256c-0.00727953,-0.021752 -0.0308228,-0.0334843 -0.0525748,-0.0262047 -0.021752,0.00727953 -0.0334843,0.0308228 -0.0262047,0.0525748l0.306268 0.907016c0.00727953,0.021752 0.0308228,0.0334843 0.0525748,0.0262047 0.021752,-0.00727953 0.0334843,-0.0308228 0.0262047,-0.0525748l-0.306268 -0.907016z"></path><path class="fil0" d="M4.73788 4.05009c-0.00647244,0.0220236 0.00613386,0.045126 0.0281575,0.0515984 0.0220236,0.00647244 0.045126,-0.00613386 0.0515984,-0.0281575l0.468921 -1.59705c0.00647244,-0.0220236 -0.00613386,-0.045126 -0.0281575,-0.0515984 -0.0220236,-0.00647244 -0.045126,0.00613386 -0.0515984,0.0281575l-0.468921 1.59705z"></path><path class="fil0" d="M4.67251 4.49043c0.00862992,-0.0213031 -0.00164567,-0.0455709 -0.0229488,-0.0542008 -0.0213031,-0.00862992 -0.0455709,0.00164567 -0.0542008,0.0229488l-0.273496 0.675677c-0.00862992,0.0213031 0.00164567,0.0455709 0.0229488,0.0542008 0.0213031,0.00862992 0.0455709,-0.00164567 0.0542008,-0.0229488l0.273496 -0.675677zm-0.55678 0.710602c0.0134803,0.0185157 0.0394252,0.0225945 0.0579409,0.00911417 0.0185157,-0.0134803 0.0225945,-0.0394252 0.00911417,-0.0579409l-0.600272 -0.82237c-0.0134803,-0.0185157 -0.0394252,-0.0225945 -0.0579409,-0.00911417 -0.0185157,0.0134803 -0.0225945,0.0394252 -0.00911417,0.0579409l0.600272 0.82237z"></path><path class="fil0" d="M1.81999 2.03291c-0.0115945,-0.0197756 -0.0370276,-0.0264055 -0.0568031,-0.014811 -0.0197756,0.0115945 -0.0264055,0.0370276 -0.014811,0.0568031l0.30572 0.518654c0.0115945,0.0197756 0.0370276,0.0264055 0.0568031,0.014811 0.0197756,-0.0115945 0.0264055,-0.0370276 0.014811,-0.0568031l-0.30572 -0.518654zm0.56772 0.606465c-0.0212126,0.00871654 -0.0313425,0.0329882 -0.022626,0.0542008 0.00871654,0.0212126 0.0329882,0.0313425 0.0542008,0.022626l0.908433 -0.374059c0.0212126,-0.00871654 0.0313425,-0.0329882 0.022626,-0.0542008 -0.00871654,-0.0212126 -0.0329882,-0.0313425 -0.0542008,-0.022626l-0.908433 0.374059zm1.15761 -0.198425c0.0010748,-0.0229213 -0.0166299,-0.0423819 -0.0395512,-0.0434567 -0.0229213,-0.0010748 -0.0423819,0.0166299 -0.0434567,0.0395512l-0.0733268 1.51983c-0.0010748,0.0229213 0.0166299,0.0423819 0.0395512,0.0434567 0.0229213,0.0010748 0.0423819,-0.0166299 0.0434567,-0.0395512l0.0733268 -1.51983zm-0.0349646 1.53294c-0.0130315,0.018874 -0.00829528,0.044752 0.0105787,0.0577835 0.018874,0.0130315 0.044752,0.00829528 0.0577835,-0.0105787l0.600591 -0.867539c0.0130315,-0.018874 0.00829528,-0.044752 -0.0105787,-0.0577835 -0.018874,-0.0130315 -0.044752,-0.00829528 -0.0577835,0.0105787l-0.600591 0.867539zm0.979429 -0.988547c-0.0215709,-0.0078189 -0.0454055,0.00333071 -0.0532244,0.0249016 -0.0078189,0.0215709 0.00333071,0.0454055 0.0249016,0.0532244l1.01309 0.366189c0.0215709,0.0078189 0.0454055,-0.00333071 0.0532244,-0.0249016 0.0078189,-0.0215709 -0.00333071,-0.0454055 -0.0249016,-0.0532244l-1.01309 -0.366189zm1.03712 0.332913c0.0141102,0.0180669 0.0402047,0.0212717 0.0582717,0.00716142 0.0180669,-0.0141102 0.0212717,-0.0402047 0.00716142,-0.0582717l-1.18925 -1.51804c-0.0141102,-0.0180669 -0.0402047,-0.0212717 -0.0582717,-0.00716142 -0.0180669,0.0141102 -0.0212717,0.0402047 -0.00716142,0.0582717l1.18925 1.51804z"></path></g><g><path class="fil0" d="M1.13238 2.61219c0.0719409,0 0.137087,0.0291693 0.184236,0.0763189 0.0471496,0.0471496 0.0763189,0.112291 0.0763189,0.184232 0,0.0719409 -0.0291693,0.137083 -0.0763228,0.184232 -0.0471496,0.0471535 -0.112291,0.0763228 -0.184232,0.0763228 -0.0719409,0 -0.137083,-0.0291693 -0.184232,-0.0763189 -0.0471496,-0.0471496 -0.0763189,-0.112295 -0.0763189,-0.184236 0,-0.0719449 0.0291693,-0.137087 0.0763189,-0.184232 0.0471457,-0.0471496 0.112287,-0.0763189 0.184232,-0.0763189zm0.125315 0.13524c-0.032063,-0.032063 -0.076378,-0.0519016 -0.125315,-0.0519016 -0.0489409,0 -0.093248,0.0198386 -0.125311,0.0519016 -0.032063,0.032063 -0.0519016,0.0763701 -0.0519016,0.125311 0,0.048937 0.0198386,0.093252 0.0519016,0.125315 0.032063,0.032063 0.076374,0.0519016 0.125311,0.0519016 0.048937,0 0.093248,-0.0198386 0.125311,-0.0519055 0.0320669,-0.032063 0.0519055,-0.076374 0.0519055,-0.125311 0,-0.048937 -0.0198386,-0.093248 -0.0519016,-0.125311z"></path><path class="fil0" d="M1.55729 3.67656c0.0719409,0 0.137083,0.0291693 0.184232,0.0763189 0.0471496,0.0471496 0.0763189,0.112291 0.0763189,0.184232 0,0.0719409 -0.0291693,0.137083 -0.0763189,0.184236 -0.0471496,0.0471496 -0.112291,0.0763189 -0.184232,0.0763189 -0.0719409,0 -0.137087,-0.0291693 -0.184236,-0.0763189 -0.0471496,-0.0471535 -0.0763189,-0.112295 -0.0763189,-0.184236 0,-0.0719409 0.0291693,-0.137083 0.0763189,-0.184232 0.0471496,-0.0471496 0.112291,-0.0763189 0.184236,-0.0763189zm0.125311 0.13524c-0.032063,-0.032063 -0.076374,-0.0519016 -0.125311,-0.0519016 -0.0489409,0 -0.093252,0.0198386 -0.125315,0.0519016 -0.032063,0.032063 -0.0519016,0.076374 -0.0519016,0.125311 0,0.048937 0.0198386,0.093248 0.0519016,0.125315 0.032063,0.032063 0.076378,0.0519016 0.125315,0.0519016 0.048937,0 0.093248,-0.0198386 0.125311,-0.0519016 0.032063,-0.0320669 0.0519016,-0.076378 0.0519016,-0.125315 0,-0.048937 -0.0198386,-0.093248 -0.0519016,-0.125311z"></path><path class="fil0" d="M2.43282 4.11433c0.0719409,0 0.137083,0.0291693 0.184232,0.0763189 0.0471496,0.0471496 0.0763189,0.112291 0.0763189,0.184232 0,0.0719409 -0.0291693,0.137083 -0.0763189,0.184232 -0.0471496,0.0471496 -0.112291,0.0763189 -0.184232,0.0763189 -0.0719409,0 -0.137083,-0.0291693 -0.184232,-0.0763189 -0.0471496,-0.0471496 -0.0763189,-0.112291 -0.0763189,-0.184232 0,-0.0719409 0.0291693,-0.137083 0.0763189,-0.184232 0.0471457,-0.0471496 0.112287,-0.0763189 0.184232,-0.0763189zm0.125311 0.13524c-0.032063,-0.032063 -0.076374,-0.0519016 -0.125311,-0.0519016 -0.0489409,0 -0.093248,0.0198386 -0.125311,0.0519016 -0.032063,0.032063 -0.0519016,0.076374 -0.0519016,0.125311 0,0.048937 0.0198386,0.093248 0.0519016,0.125311 0.032063,0.032063 0.076374,0.0519016 0.125311,0.0519016 0.048937,0 0.093248,-0.0198386 0.125311,-0.0519016 0.032063,-0.032063 0.0519016,-0.076374 0.0519016,-0.125311 0,-0.048937 -0.0198386,-0.093248 -0.0519016,-0.125311z"></path><path class="fil0" d="M3.41994 3.9169c0.0719449,0 0.137087,0.0291693 0.184232,0.0763189 0.0471496,0.0471496 0.0763189,0.112291 0.0763189,0.184232 0,0.0719449 -0.0291693,0.137087 -0.0763189,0.184236 -0.0471496,0.0471496 -0.112291,0.0763189 -0.184232,0.0763189 -0.0719449,0 -0.137087,-0.0291693 -0.184236,-0.0763189 -0.0471496,-0.0471496 -0.0763189,-0.112291 -0.0763189,-0.184236 0,-0.0719449 0.0291693,-0.137087 0.0763189,-0.184232 0.0471496,-0.0471496 0.112291,-0.0763189 0.184236,-0.0763189zm0.125311 0.13524c-0.032063,-0.032063 -0.0763701,-0.0519016 -0.125311,-0.0519016 -0.0489409,0 -0.093252,0.0198386 -0.125315,0.0519016 -0.032063,0.032063 -0.0519016,0.0763701 -0.0519016,0.125311 0,0.0489409 0.0198386,0.093252 0.0519016,0.125315 0.032063,0.032063 0.076374,0.0519016 0.125315,0.0519016 0.048937,0 0.093248,-0.0198386 0.125311,-0.0519016 0.032063,-0.032063 0.0519016,-0.076374 0.0519016,-0.125315 0,-0.048937 -0.0198386,-0.093248 -0.0519016,-0.125311z"></path><path class="fil0" d="M4.71608 4.01132c0.0719409,0 0.137083,0.0291693 0.184232,0.0763189 0.0471457,0.0471496 0.076315,0.112291 0.076315,0.184232 0,0.0719409 -0.0291693,0.137087 -0.0763189,0.184236 -0.0471457,0.0471496 -0.112287,0.0763189 -0.184228,0.0763189 -0.0719409,0 -0.137083,-0.0291693 -0.184232,-0.0763189 -0.0471496,-0.0471496 -0.0763189,-0.112295 -0.0763189,-0.184236 0,-0.0719409 0.0291693,-0.137083 0.0763189,-0.184232 0.0471496,-0.0471496 0.112291,-0.0763189 0.184232,-0.0763189zm0.125311 0.13524c-0.032063,-0.032063 -0.076374,-0.0519016 -0.125311,-0.0519016 -0.048937,0 -0.093248,0.0198386 -0.125311,0.0519016 -0.032063,0.032063 -0.0519016,0.076374 -0.0519016,0.125311 0,0.048937 0.0198386,0.093252 0.0519016,0.125315 0.032063,0.032063 0.076374,0.0519016 0.125311,0.0519016 0.048937,0 0.0932441,-0.0198386 0.125307,-0.0519016 0.032063,-0.032063 0.0519016,-0.076378 0.0519016,-0.125315 0,-0.048937 -0.0198346,-0.093248 -0.0518976,-0.125311z"></path><path class="fil0" d="M5.69462 3.20445c0.0719409,0 0.137083,0.0291693 0.184232,0.0763189 0.0471496,0.0471496 0.0763189,0.112295 0.0763189,0.184236 0,0.0719449 -0.0291693,0.137087 -0.0763189,0.184232 -0.0471457,0.0471496 -0.112287,0.0763189 -0.184232,0.0763189 -0.0719409,0 -0.137087,-0.0291693 -0.184236,-0.0763189 -0.0471496,-0.0471496 -0.0763189,-0.112291 -0.0763189,-0.184232 0,-0.0719409 0.0291693,-0.137083 0.0763228,-0.184236 0.0471496,-0.0471496 0.112291,-0.0763189 0.184232,-0.0763189zm0.125311 0.13524c-0.032063,-0.032063 -0.076374,-0.0519016 -0.125311,-0.0519016 -0.048937,0 -0.093248,0.0198386 -0.125311,0.0519016 -0.0320669,0.0320669 -0.0519055,0.076378 -0.0519055,0.125315 0,0.048937 0.0198386,0.093248 0.0519016,0.125311 0.032063,0.032063 0.076378,0.0519016 0.125315,0.0519016 0.0489409,0 0.093248,-0.0198386 0.125311,-0.0519016 0.032063,-0.032063 0.0519016,-0.0763701 0.0519016,-0.125311 0,-0.048937 -0.0198386,-0.093252 -0.0519016,-0.125315z"></path><path class="fil0" d="M5.30835 1.99415c0.0719449,0 0.137087,0.0291693 0.184236,0.0763189 0.0471496,0.0471496 0.0763189,0.112291 0.0763189,0.184236 0,0.0719409 -0.0291693,0.137083 -0.0763189,0.184232 -0.0471496,0.0471496 -0.112295,0.0763189 -0.184236,0.0763189 -0.0719409,0 -0.137083,-0.0291693 -0.184232,-0.0763189 -0.0471496,-0.0471496 -0.0763189,-0.112291 -0.0763189,-0.184232 0,-0.0719409 0.0291693,-0.137087 0.0763189,-0.184236 0.0471496,-0.0471496 0.112291,-0.0763189 0.184232,-0.0763189zm0.125315 0.13524c-0.032063,-0.032063 -0.076374,-0.0519016 -0.125315,-0.0519016 -0.048937,0 -0.093248,0.0198386 -0.125311,0.0519016 -0.032063,0.032063 -0.0519016,0.076378 -0.0519016,0.125315 0,0.048937 0.0198386,0.093248 0.0519016,0.125311 0.032063,0.032063 0.076374,0.0519016 0.125311,0.0519016 0.048937,0 0.093252,-0.0198386 0.125315,-0.0519016 0.032063,-0.032063 0.0519016,-0.076374 0.0519016,-0.125311 0,-0.0489409 -0.0198386,-0.093252 -0.0519016,-0.125315z"></path><path class="fil0" d="M4.23539 1.3418c0.0719449,0 0.137087,0.0291693 0.184232,0.0763189 0.0471496,0.0471457 0.0763189,0.112287 0.0763189,0.184232 0,0.0719409 -0.0291693,0.137083 -0.0763189,0.184232 -0.0471496,0.0471496 -0.112291,0.0763189 -0.184232,0.0763189 -0.0719409,0 -0.137083,-0.0291693 -0.184236,-0.0763189 -0.0471496,-0.0471496 -0.0763189,-0.112291 -0.0763189,-0.184232 0,-0.0719409 0.0291693,-0.137083 0.0763189,-0.184232 0.0471496,-0.0471496 0.112295,-0.0763189 0.184236,-0.0763189zm0.125311 0.13524c-0.032063,-0.032063 -0.0763701,-0.0519016 -0.125311,-0.0519016 -0.048937,0 -0.093252,0.0198386 -0.125315,0.0519016 -0.032063,0.032063 -0.0519016,0.076374 -0.0519016,0.125311 0,0.048937 0.0198386,0.093248 0.0519016,0.125311 0.0320669,0.032063 0.076378,0.0519016 0.125315,0.0519016 0.048937,0 0.093248,-0.0198386 0.125311,-0.0519016 0.032063,-0.032063 0.0519016,-0.076374 0.0519016,-0.125311 0,-0.0489409 -0.0198386,-0.093248 -0.0519016,-0.125311z"></path><path class="fil0" d="M3.00793 1.21304c0.0719409,0 0.137083,0.0291693 0.184232,0.0763189 0.0471496,0.0471496 0.0763189,0.112291 0.0763189,0.184232 0,0.0719409 -0.0291693,0.137083 -0.0763189,0.184236 -0.0471496,0.0471496 -0.112291,0.0763189 -0.184232,0.0763189 -0.0719409,0 -0.137083,-0.0291693 -0.184232,-0.0763189 -0.0471496,-0.0471496 -0.0763189,-0.112295 -0.0763189,-0.184236 0,-0.0719449 0.0291693,-0.137087 0.0763189,-0.184232 0.0471457,-0.0471496 0.112287,-0.0763189 0.184232,-0.0763189zm0.125311 0.13524c-0.032063,-0.032063 -0.076374,-0.0519016 -0.125311,-0.0519016 -0.0489409,0 -0.093248,0.0198386 -0.125311,0.0519016 -0.032063,0.032063 -0.0519016,0.0763701 -0.0519016,0.125311 0,0.048937 0.0198386,0.093252 0.0519016,0.125315 0.032063,0.032063 0.076374,0.0519016 0.125311,0.0519016 0.048937,0 0.093248,-0.0198386 0.125311,-0.0519016 0.032063,-0.0320669 0.0519016,-0.076378 0.0519016,-0.125315 0,-0.048937 -0.0198386,-0.093248 -0.0519016,-0.125311z"></path><path class="fil0" d="M1.63454 1.63364c0.0719409,0 0.137083,0.0291693 0.184232,0.0763189 0.0471496,0.0471496 0.0763189,0.112291 0.0763189,0.184232 0,0.0719409 -0.0291693,0.137087 -0.0763189,0.184236 -0.0471496,0.0471496 -0.112291,0.0763189 -0.184232,0.0763189 -0.0719409,0 -0.137083,-0.0291693 -0.184232,-0.0763189 -0.0471496,-0.0471496 -0.0763189,-0.112291 -0.0763189,-0.184236 0,-0.0719449 0.0291693,-0.137087 0.0763189,-0.184232 0.0471457,-0.0471496 0.112287,-0.0763189 0.184232,-0.0763189zm0.125311 0.13524c-0.032063,-0.032063 -0.076374,-0.0519016 -0.125311,-0.0519016 -0.0489409,0 -0.093248,0.0198386 -0.125311,0.0519016 -0.032063,0.032063 -0.0519016,0.0763701 -0.0519016,0.125311 0,0.0489409 0.0198386,0.093252 0.0519016,0.125315 0.032063,0.032063 0.076374,0.0519016 0.125311,0.0519016 0.048937,0 0.093248,-0.0198386 0.125311,-0.0519016 0.032063,-0.032063 0.0519016,-0.076378 0.0519016,-0.125315 0,-0.048937 -0.0198386,-0.093248 -0.0519016,-0.125311z"></path><path class="fil0" d="M2.20106 2.50059c0.0719409,0 0.137083,0.0291693 0.184232,0.0763189 0.0471496,0.0471457 0.0763189,0.112287 0.0763189,0.184232 0,0.0719409 -0.0291693,0.137083 -0.0763189,0.184232 -0.0471496,0.0471496 -0.112291,0.0763189 -0.184232,0.0763189 -0.0719449,0 -0.137087,-0.0291693 -0.184236,-0.0763189 -0.0471496,-0.0471496 -0.0763189,-0.112291 -0.0763189,-0.184232 0,-0.0719409 0.0291693,-0.137083 0.0763189,-0.184232 0.0471496,-0.0471496 0.112291,-0.0763189 0.184236,-0.0763189zm0.125311 0.13524c-0.032063,-0.032063 -0.076374,-0.0519016 -0.125311,-0.0519016 -0.0489409,0 -0.093252,0.0198386 -0.125315,0.0519016 -0.032063,0.032063 -0.0519016,0.076374 -0.0519016,0.125311 0,0.048937 0.0198386,0.093248 0.0519016,0.125311 0.032063,0.032063 0.076374,0.0519016 0.125315,0.0519016 0.048937,0 0.093248,-0.0198386 0.125311,-0.0519016 0.032063,-0.032063 0.0519016,-0.076374 0.0519016,-0.125311 0,-0.0489409 -0.0198386,-0.093248 -0.0519016,-0.125311z"></path><path class="fil0" d="M3.51436 1.95981c0.0719449,0 0.137087,0.0291693 0.184236,0.0763189 0.0471496,0.0471496 0.0763189,0.112295 0.0763189,0.184236 0,0.0719449 -0.0291693,0.137087 -0.0763189,0.184232 -0.0471496,0.0471496 -0.112291,0.0763189 -0.184236,0.0763189 -0.0719409,0 -0.137083,-0.0291693 -0.184232,-0.0763189 -0.0471496,-0.0471496 -0.0763189,-0.112291 -0.0763189,-0.184232 0,-0.0719409 0.0291693,-0.137083 0.0763189,-0.184236 0.0471496,-0.0471496 0.112291,-0.0763189 0.184232,-0.0763189zm0.125315 0.13524c-0.032063,-0.032063 -0.076374,-0.0519016 -0.125315,-0.0519016 -0.048937,0 -0.093248,0.0198386 -0.125311,0.0519016 -0.032063,0.0320669 -0.0519016,0.076378 -0.0519016,0.125315 0,0.048937 0.0198386,0.093248 0.0519016,0.125311 0.032063,0.032063 0.076374,0.0519016 0.125311,0.0519016 0.0489409,0 0.093252,-0.0198386 0.125315,-0.0519016 0.032063,-0.032063 0.0519016,-0.0763701 0.0519016,-0.125311 0,-0.048937 -0.0198386,-0.093252 -0.0519016,-0.125315z"></path><path class="fil0" d="M3.04226 2.95552c0.0719409,0 0.137083,0.0291693 0.184232,0.0763189 0.0471496,0.0471496 0.0763189,0.112291 0.0763189,0.184232 0,0.0719409 -0.0291693,0.137083 -0.0763189,0.184232 -0.0471496,0.0471496 -0.112291,0.0763189 -0.184232,0.0763189 -0.0719449,0 -0.137087,-0.0291693 -0.184232,-0.0763189 -0.0471496,-0.0471496 -0.0763189,-0.112291 -0.0763189,-0.184232 0,-0.0719409 0.0291693,-0.137083 0.0763189,-0.184232 0.0471496,-0.0471496 0.112291,-0.0763189 0.184232,-0.0763189zm0.125311 0.13524c-0.032063,-0.032063 -0.076374,-0.0519016 -0.125311,-0.0519016 -0.048937,0 -0.093248,0.0198386 -0.125311,0.0519016 -0.032063,0.032063 -0.0519016,0.076374 -0.0519016,0.125311 0,0.048937 0.0198386,0.093248 0.0519016,0.125311 0.032063,0.032063 0.0763701,0.0519016 0.125311,0.0519016 0.048937,0 0.093248,-0.0198386 0.125311,-0.0519016 0.032063,-0.032063 0.0519016,-0.076374 0.0519016,-0.125311 0,-0.048937 -0.0198386,-0.093248 -0.0519016,-0.125311z"></path><path class="fil0" d="M4.26973 2.68943c0.0719409,0 0.137083,0.0291693 0.184232,0.0763189 0.0471496,0.0471496 0.0763189,0.112295 0.0763189,0.184236 0,0.0719409 -0.0291693,0.137083 -0.0763189,0.184232 -0.0471457,0.0471496 -0.112287,0.0763189 -0.184232,0.0763189 -0.0719449,0 -0.137087,-0.0291693 -0.184236,-0.0763189 -0.0471496,-0.0471457 -0.0763189,-0.112287 -0.0763189,-0.184232 0,-0.0719409 0.0291693,-0.137087 0.0763189,-0.184236 0.0471496,-0.0471496 0.112291,-0.0763189 0.184236,-0.0763189zm0.125311 0.13524c-0.032063,-0.032063 -0.076374,-0.0519016 -0.125311,-0.0519016 -0.0489409,0 -0.093252,0.0198386 -0.125315,0.0519016 -0.032063,0.032063 -0.0519016,0.076378 -0.0519016,0.125315 0,0.0489409 0.0198386,0.093248 0.0519016,0.125311 0.032063,0.032063 0.076374,0.0519016 0.125315,0.0519016 0.0489409,0 0.093248,-0.0198386 0.125311,-0.0519016 0.032063,-0.032063 0.0519016,-0.076374 0.0519016,-0.125311 0,-0.048937 -0.0198386,-0.093252 -0.0519016,-0.125315z"></path><path class="fil0" d="M4.2783 5.09286c0.0719409,0 0.137087,0.0291693 0.184236,0.0763189 0.0471496,0.0471535 0.0763189,0.112295 0.0763189,0.184236 0,0.0719409 -0.0291693,0.137083 -0.0763189,0.184232 -0.0471496,0.0471496 -0.112291,0.0763189 -0.184236,0.0763189 -0.0719409,0 -0.137083,-0.0291693 -0.184232,-0.0763189 -0.0471496,-0.0471496 -0.0763189,-0.112291 -0.0763189,-0.184232 0,-0.0719409 0.0291693,-0.137083 0.0763189,-0.184236 0.0471496,-0.0471496 0.112291,-0.0763189 0.184232,-0.0763189zm0.125315 0.13524c-0.032063,-0.032063 -0.076378,-0.0519016 -0.125315,-0.0519016 -0.048937,0 -0.093248,0.0198386 -0.125311,0.0519016 -0.032063,0.0320669 -0.0519016,0.076378 -0.0519016,0.125315 0,0.048937 0.0198386,0.093248 0.0519016,0.125311 0.032063,0.032063 0.076374,0.0519016 0.125311,0.0519016 0.0489409,0 0.093252,-0.0198386 0.125315,-0.0519016 0.032063,-0.032063 0.0519016,-0.076374 0.0519016,-0.125311 0,-0.048937 -0.0198386,-0.093248 -0.0519016,-0.125315z"></path></g></g></g></g><rect class="fil1" width="6.827" height="6.827"></rect></svg>
