<?xml version="1.0" encoding="UTF-8" standalone="no"?>
<svg
   xmlns:dc="http://purl.org/dc/elements/1.1/"
   xmlns:cc="http://creativecommons.org/ns#"
   xmlns:rdf="http://www.w3.org/1999/02/22-rdf-syntax-ns#"
   xmlns:svg="http://www.w3.org/2000/svg"
   xmlns="http://www.w3.org/2000/svg"
   xmlns:sodipodi="http://sodipodi.sourceforge.net/DTD/sodipodi-0.dtd"
   xmlns:inkscape="http://www.inkscape.org/namespaces/inkscape"
   height="100px"
   width="100px"
   fill="#000000"
   version="1.1"
   x="0px"
   y="0px"
   viewBox="0 0 64 64"
   style="enable-background:new 0 0 64 64;"
   xml:space="preserve"
   id="svg4636"
   sodipodi:docname="graduation-cap.svg"
   inkscape:version="0.92.4 (5da689c313, 2019-01-14)"><metadata
     id="metadata4642"><rdf:RDF><cc:Work
         rdf:about=""><dc:format>image/svg+xml</dc:format><dc:type
           rdf:resource="http://purl.org/dc/dcmitype/StillImage" /></cc:Work></rdf:RDF></metadata><defs
     id="defs4640" /><sodipodi:namedview
     pagecolor="#ffffff"
     bordercolor="#666666"
     borderopacity="1"
     objecttolerance="10"
     gridtolerance="10"
     guidetolerance="10"
     inkscape:pageopacity="0"
     inkscape:pageshadow="2"
     inkscape:window-width="1280"
     inkscape:window-height="1048"
     id="namedview4638"
     showgrid="false"
     inkscape:zoom="2.36"
     inkscape:cx="44.70339"
     inkscape:cy="50"
     inkscape:window-x="0"
     inkscape:window-y="0"
     inkscape:window-maximized="0"
     inkscape:current-layer="svg4636" /><g
     id="g4634"
     style="fill:#28a745;fill-opacity:1"><path
       d="M63.4,24.4l-31-11.1c-0.2-0.1-0.4-0.1-0.7,0l-31,11.1C0.3,24.6,0,24.9,0,25.3c0,0.4,0.3,0.8,0.6,0.9l31,11.1   c0.1,0,0.2,0.1,0.3,0.1c0.1,0,0.2,0,0.3-0.1l23.1-8.2v8.6h-0.3c-1.1,0-1.9,0.9-1.9,1.9v5.7c0,0.5,0.4,1,1,1h4.4c0.5,0,1-0.4,1-1   v-5.7c0-1.1-0.9-1.9-1.9-1.9h-0.3v-9.3l6-2.1c0.4-0.1,0.6-0.5,0.6-0.9C64,24.9,63.7,24.6,63.4,24.4z"
       id="path4630"
       style="fill:#28a745;fill-opacity:1" /><path
       d="M32,39.3c-0.3,0-0.7-0.1-1-0.2l-17.7-6.3v14.7c0,0.5,0.3,0.9,0.8,1c0.5,0.1,11.2,2.2,17.9,2.2s17.5-2.1,17.9-2.2   c0.5-0.1,0.8-0.5,0.8-1V32.8L33,39.2C32.7,39.3,32.3,39.3,32,39.3z"
       id="path4632"
       style="fill:#28a745;fill-opacity:1" /></g></svg>