<?xml version="1.0" encoding="UTF-8" standalone="no"?>
<svg
   xmlns:dc="http://purl.org/dc/elements/1.1/"
   xmlns:cc="http://creativecommons.org/ns#"
   xmlns:rdf="http://www.w3.org/1999/02/22-rdf-syntax-ns#"
   xmlns:svg="http://www.w3.org/2000/svg"
   xmlns="http://www.w3.org/2000/svg"
   xmlns:sodipodi="http://sodipodi.sourceforge.net/DTD/sodipodi-0.dtd"
   xmlns:inkscape="http://www.inkscape.org/namespaces/inkscape"
   height="100px"
   width="100px"
   fill="#000000"
   data-name="Layer 1"
   viewBox="0 0 100 100"
   x="0px"
   y="0px"
   version="1.1"
   id="svg5203"
   sodipodi:docname="laptop.svg"
   inkscape:version="0.92.4 (5da689c313, 2019-01-14)">
  <metadata
     id="metadata5209">
    <rdf:RDF>
      <cc:Work
         rdf:about="">
        <dc:format>image/svg+xml</dc:format>
        <dc:type
           rdf:resource="http://purl.org/dc/dcmitype/StillImage" />
      </cc:Work>
    </rdf:RDF>
  </metadata>
  <defs
     id="defs5207" />
  <sodipodi:namedview
     pagecolor="#ffffff"
     bordercolor="#666666"
     borderopacity="1"
     objecttolerance="10"
     gridtolerance="10"
     guidetolerance="10"
     inkscape:pageopacity="0"
     inkscape:pageshadow="2"
     inkscape:window-width="691"
     inkscape:window-height="480"
     id="namedview5205"
     showgrid="false"
     inkscape:zoom="2.36"
     inkscape:cx="50"
     inkscape:cy="50"
     inkscape:window-x="0"
     inkscape:window-y="0"
     inkscape:window-maximized="0"
     inkscape:current-layer="svg5203" />
  <title
     id="title5199">All4</title>
  <path
     d="M98,60a21.23,21.23,0,0,0-2-1c-7.43-3.26-14.83-6.57-22.31-9.72a6.62,6.62,0,0,1-3.95-4.56c-2.27-8.16-4.36-16.37-6.55-24.55C62.31,17,61.51,14,60.47,11c-0.81-2.34-2.22-3-4.41-2.57-6.75,1.4-13.51,2.79-20.26,4.22Q19.65,16.07,3.51,19.54c-2.84.6-4,2.5-3.3,5.31C3.77,38.49,7.3,52.14,10.92,65.77c0.94,3.54,2,7,5.53,9.15,7.58,4.73,15,9.75,22.47,14.62,2,1.29,4.07,2.36,6.8,2.13a6.93,6.93,0,0,0,3.35-1.09l48.48-24.1A3.89,3.89,0,0,0,100,63.14,3.33,3.33,0,0,0,98,60Zm-80,.4a1.71,1.71,0,0,1-2.27-1.2L7.58,28A1.83,1.83,0,0,1,9,25.75L54.46,15.65a2,2,0,0,1,2.37,1.42l6.84,24.77a2.1,2.1,0,0,1-1.28,2.48ZM63.81,79.45L58.06,76.6l12-5.69,5.74,2.36Z"
     id="path5201"
     style="fill:#28a745;fill-opacity:1" />
</svg>
