<?xml version="1.0" encoding="UTF-8" standalone="no"?>
<!-- Generator: Adobe Illustrator 24.0.0, SVG Export Plug-In . SVG Version: 6.00 Build 0)  -->

<svg
   xmlns:dc="http://purl.org/dc/elements/1.1/"
   xmlns:cc="http://creativecommons.org/ns#"
   xmlns:rdf="http://www.w3.org/1999/02/22-rdf-syntax-ns#"
   xmlns:svg="http://www.w3.org/2000/svg"
   xmlns="http://www.w3.org/2000/svg"
   xmlns:sodipodi="http://sodipodi.sourceforge.net/DTD/sodipodi-0.dtd"
   xmlns:inkscape="http://www.inkscape.org/namespaces/inkscape"
   version="1.1"
   id="Layer_1"
   x="0px"
   y="0px"
   viewBox="0 0 485.28003 142.20609"
   xml:space="preserve"
   sodipodi:docname="logo9-wide.svg"
   inkscape:version="0.92.4 (5da689c313, 2019-01-14)"
   width="485.28003"
   height="142.20609"><metadata
   id="metadata143"><rdf:RDF><cc:Work
       rdf:about=""><dc:format>image/svg+xml</dc:format><dc:type
         rdf:resource="http://purl.org/dc/dcmitype/StillImage" /><dc:title></dc:title></cc:Work></rdf:RDF></metadata><defs
   id="defs141" /><sodipodi:namedview
   pagecolor="#ffffff"
   bordercolor="#666666"
   borderopacity="1"
   objecttolerance="10"
   gridtolerance="10"
   guidetolerance="10"
   inkscape:pageopacity="0"
   inkscape:pageshadow="2"
   inkscape:window-width="1095"
   inkscape:window-height="1008"
   id="namedview139"
   showgrid="false"
   inkscape:zoom="1.4142136"
   inkscape:cx="207.94669"
   inkscape:cy="113.66415"
   inkscape:window-x="800"
   inkscape:window-y="0"
   inkscape:window-maximized="0"
   inkscape:current-layer="g950"
   fit-margin-top="0"
   fit-margin-left="0"
   fit-margin-right="0"
   fit-margin-bottom="0" />
<style
   type="text/css"
   id="style2">
	.st0{display:none;}
	.st1{display:inline;}
	.st2{fill:#010101;}
	.st3{display:inline;fill:#010101;}
	.st4{fill:#EC2326;}
	.st5{fill:#3954A4;}
</style>
<g
   class="st0"
   id="g28"
   style="display:none"
   transform="translate(-257.35999,-428.89697)">
	<g
   class="st1"
   id="g24"
   style="display:inline">
		<path
   class="st2"
   d="m 251.49,416.57 h -9.64 l -18.7,31.53 -18.99,-31.53 h -9.72 v 50.74 h 11.02 v -29.79 l 14.86,24.42 h 5.29 l 14.93,-25.08 0.07,30.45 h 11.02 z"
   id="path4"
   inkscape:connector-curvature="0"
   style="fill:#010101" />
		<path
   class="st2"
   d="m 275.33,437.01 v 9.13 h 23.56 v -9.13 z m 0,-20.44 v 9.42 H 302 v -9.42 z m 0,41.31 v 9.43 h 27.61 v -9.43 z"
   id="path6"
   inkscape:connector-curvature="0"
   style="fill:#010101" />
		<path
   class="st2"
   d="m 306.57,416.57 v 9.57 h 16.23 v 41.17 h 11.74 v -41.17 h 16.24 v -9.57 z"
   id="path8"
   inkscape:connector-curvature="0"
   style="fill:#010101" />
		<path
   class="st2"
   d="m 382.09,416.57 h -11.6 l -22.61,50.74 h 12.03 l 4.49,-10.88 h 23.56 l 4.49,10.88 h 12.33 z m -13.92,30.95 8.05,-19.43 8.04,19.43 z"
   id="path10"
   inkscape:connector-curvature="0"
   style="fill:#010101" />
		<path
   class="st2"
   d="m 116.53,545.15 c -9.49,0 -16.23,-6.67 -16.23,-16.24 0,-9.57 6.74,-16.23 16.23,-16.23 5.08,0 9.35,2.03 12.76,5.94 l 7.54,-6.96 c -4.78,-5.8 -12.11,-8.99 -20.88,-8.99 -15.8,0 -27.54,10.95 -27.54,26.24 0,15.3 11.74,26.24 27.47,26.24 8.84,0 16.17,-3.19 20.95,-9.06 l -7.54,-6.96 c -3.41,3.99 -7.68,6.02 -12.76,6.02 z"
   id="path12"
   inkscape:connector-curvature="0"
   style="fill:#010101" />
		<path
   class="st2"
   d="m 168.21,502.67 c -16.02,0 -27.76,11.17 -27.76,26.24 0,15.08 11.74,26.24 27.76,26.24 15.95,0 27.76,-11.09 27.76,-26.24 0,-15.15 -11.81,-26.24 -27.76,-26.24 z m 0,42.48 c -9.06,0 -15.87,-6.6 -15.87,-16.24 0,-9.64 6.81,-16.23 15.87,-16.23 9.06,0 15.87,6.59 15.87,16.23 0,9.64 -6.81,16.24 -15.87,16.24 z"
   id="path14"
   inkscape:connector-curvature="0"
   style="fill:#010101" />
		<path
   class="st2"
   d="m 227.86,503.54 h -23.05 v 50.74 h 23.05 c 16.6,0 27.98,-10 27.98,-25.37 0,-15.36 -11.38,-25.37 -27.98,-25.37 z m -0.58,41.1 h -10.73 v -31.46 h 10.73 c 10.07,0 16.67,6.02 16.67,15.73 0,9.71 -6.6,15.73 -16.67,15.73 z"
   id="path16"
   inkscape:connector-curvature="0"
   style="fill:#010101" />
		<path
   class="st2"
   d="m 275.33,545.73 v 9.42 h 27.61 v -9.42 z m 0,-41.32 v 9.43 H 302 v -9.43 z m 0,20.44 v 9.14 h 23.56 v -9.14 z"
   id="path18"
   inkscape:connector-curvature="0"
   style="fill:#010101" />
		<path
   class="st2"
   d="m 345.87,538.84 c 6.59,-2.83 10.43,-8.41 10.43,-16.02 0,-11.38 -8.48,-18.41 -22.03,-18.41 h -21.96 v 50.74 h 11.74 v -14.13 h 10.8 l 9.78,14.13 h 12.62 z m -12.25,-7.17 h -9.57 v -17.69 h 9.57 c 7.17,0 10.8,3.26 10.8,8.84 0,5.51 -3.63,8.85 -10.8,8.85 z"
   id="path20"
   inkscape:connector-curvature="0"
   style="fill:#010101" />
		<path
   class="st2"
   d="m 375.28,517.89 c 0,-3.18 2.68,-5.79 9.64,-5.79 4.49,0 9.35,1.3 14.06,3.98 l 3.62,-8.91 c -2.88,-1.82 -6.44,-3.09 -10.23,-3.81 -2.41,-0.46 -4.9,-0.69 -7.38,-0.69 -2.64,0 -5.04,0.24 -7.18,0.69 -9.56,1.99 -14.2,8.07 -14.2,15.11 0,18.85 29.5,12.33 29.5,21.82 0,3.12 -2.83,5.44 -9.79,5.44 -6.09,0 -12.46,-2.18 -16.74,-5.29 l -3.99,8.84 c 4.5,3.48 12.61,5.87 20.66,5.87 14.5,0 21.53,-7.25 21.53,-15.73 0,-18.63 -29.5,-12.18 -29.5,-21.53 z"
   id="path22"
   inkscape:connector-curvature="0"
   style="fill:#010101" />
	</g>
	<polygon
   class="st3"
   points="468.04,527.79 468.04,588.05 263.66,588.05 263.66,383.67 468.04,383.67 468.04,442.88 486.48,442.88 468.04,461.33 462.06,467.31 437.63,442.88 456.37,442.88 456.37,395.34 275.33,395.34 275.33,576.38 456.37,576.38 456.37,527.79 437.63,527.79 456.37,509.04 462.05,503.36 486.48,527.79 "
   id="polygon26"
   style="display:inline;fill:#010101" />
</g>
<g
   class="st0"
   id="g58"
   style="display:none"
   transform="translate(-257.35999,-428.89697)">
	<g
   class="st1"
   id="g50"
   style="display:inline">
		<path
   class="st2"
   d="m 710.84,416.57 h -9.64 l -18.7,31.53 -18.99,-31.53 h -9.72 v 50.74 h 11.02 v -29.79 l 14.86,24.42 h 5.29 l 14.93,-25.08 0.07,30.45 h 11.02 z"
   id="path30"
   inkscape:connector-curvature="0"
   style="fill:#010101" />
		<path
   class="st2"
   d="m 734.68,457.88 v 9.43 h 27.61 v -9.43 z m 0,-41.31 v 9.42 h 26.67 v -9.42 z m 0,20.44 v 9.13 h 23.56 v -9.13 z"
   id="path32"
   inkscape:connector-curvature="0"
   style="fill:#010101" />
		<path
   class="st2"
   d="m 765.92,416.57 v 9.57 h 16.23 v 41.17 h 11.74 v -41.17 h 16.24 v -9.57 z"
   id="path34"
   inkscape:connector-curvature="0"
   style="fill:#010101" />
		<path
   class="st2"
   d="m 841.44,416.57 h -11.6 l -22.61,50.74 h 12.03 l 4.49,-10.88 h 23.56 l 4.49,10.88 h 12.33 z m -13.92,30.95 8.05,-19.43 8.04,19.43 z"
   id="path36"
   inkscape:connector-curvature="0"
   style="fill:#010101" />
		<path
   class="st2"
   d="m 575.88,545.15 c -9.49,0 -16.23,-6.67 -16.23,-16.24 0,-9.57 6.74,-16.23 16.23,-16.23 5.08,0 9.35,2.03 12.76,5.94 l 7.54,-6.96 c -4.78,-5.8 -12.11,-8.99 -20.88,-8.99 -15.8,0 -27.54,10.95 -27.54,26.24 0,15.3 11.74,26.24 27.47,26.24 8.84,0 16.17,-3.19 20.95,-9.06 l -7.54,-6.96 c -3.41,3.99 -7.68,6.02 -12.76,6.02 z"
   id="path38"
   inkscape:connector-curvature="0"
   style="fill:#010101" />
		<path
   class="st2"
   d="m 627.56,502.67 c -16.02,0 -27.76,11.17 -27.76,26.24 0,15.08 11.74,26.24 27.76,26.24 15.95,0 27.76,-11.09 27.76,-26.24 0,-15.15 -11.81,-26.24 -27.76,-26.24 z m 0,42.48 c -9.06,0 -15.87,-6.6 -15.87,-16.24 0,-9.64 6.81,-16.23 15.87,-16.23 9.06,0 15.87,6.59 15.87,16.23 0,9.64 -6.81,16.24 -15.87,16.24 z"
   id="path40"
   inkscape:connector-curvature="0"
   style="fill:#010101" />
		<path
   class="st2"
   d="m 695.29,504.41 c -2.52,-0.57 -5.22,-0.87 -8.08,-0.87 h -23.05 v 50.74 h 23.05 c 16.6,0 27.98,-10 27.98,-25.37 0,-12.71 -7.8,-21.76 -19.9,-24.5 z m -8.66,40.23 H 675.9 v -31.46 h 10.73 c 10.07,0 16.67,6.02 16.67,15.73 0,9.71 -6.6,15.73 -16.67,15.73 z"
   id="path42"
   inkscape:connector-curvature="0"
   style="fill:#010101" />
		<path
   class="st2"
   d="m 734.68,524.85 v 9.14 h 23.56 v -9.14 z m 0,-20.44 v 9.43 h 26.67 v -9.43 z m 0,41.32 v 9.42 h 27.61 v -9.42 z"
   id="path44"
   inkscape:connector-curvature="0"
   style="fill:#010101" />
		<path
   class="st2"
   d="m 805.22,538.84 c 6.59,-2.83 10.43,-8.41 10.43,-16.02 0,-11.38 -8.48,-18.41 -22.03,-18.41 h -21.96 v 50.74 h 11.74 v -14.13 h 10.8 l 9.78,14.13 h 12.62 z m -12.25,-7.17 h -9.57 v -17.69 h 9.57 c 7.17,0 10.8,3.26 10.8,8.84 0,5.51 -3.63,8.85 -10.8,8.85 z"
   id="path46"
   inkscape:connector-curvature="0"
   style="fill:#010101" />
		<path
   class="st2"
   d="m 834.63,517.89 c 0,-3.18 2.68,-5.79 9.64,-5.79 4.49,0 9.35,1.3 14.06,3.98 l 3.62,-8.91 c -2.88,-1.82 -6.44,-3.09 -10.23,-3.81 -2.41,-0.46 -4.9,-0.69 -7.38,-0.69 -2.64,0 -5.04,0.24 -7.18,0.69 -9.56,1.99 -14.2,8.07 -14.2,15.11 0,18.85 29.5,12.33 29.5,21.82 0,3.12 -2.83,5.44 -9.79,5.44 -6.09,0 -12.46,-2.18 -16.74,-5.29 l -3.99,8.84 c 4.5,3.48 12.61,5.87 20.66,5.87 14.5,0 21.53,-7.25 21.53,-15.73 0,-18.63 -29.5,-12.18 -29.5,-21.53 z"
   id="path48"
   inkscape:connector-curvature="0"
   style="fill:#010101" />
	</g>
	<polygon
   class="st3"
   points="927.39,527.79 927.39,588.05 723.01,588.05 723.01,504.41 734.68,504.41 734.68,576.38 915.72,576.38 915.72,527.79 896.98,527.79 915.72,509.04 921.4,503.36 945.83,527.79 "
   id="polygon52"
   style="display:inline;fill:#010101" />
	<polygon
   class="st3"
   points="921.41,467.31 896.98,442.88 945.83,442.88 927.39,461.33 "
   id="polygon54"
   style="display:inline;fill:#010101" />
	<polygon
   class="st3"
   points="915.72,442.88 915.72,395.34 734.68,395.34 734.68,467.31 723.01,467.31 723.01,383.67 927.39,383.67 927.39,442.88 "
   id="polygon56"
   style="display:inline;fill:#010101" />
</g>
<g
   class="st0"
   id="g98"
   style="display:none"
   transform="translate(-257.35999,-428.89697)">
	<polygon
   class="st3"
   points="417.79,811.05 437.34,791.51 437.34,830.59 422.58,815.84 "
   id="polygon60"
   style="display:inline;fill:#010101" />
	<polygon
   class="st3"
   points="79.4,724.07 59.85,743.61 59.85,704.53 74.61,719.29 "
   id="polygon62"
   style="display:inline;fill:#010101" />
	<path
   class="st3"
   d="m 120.53,794.82 c 5.08,0 9.35,2.02 12.76,5.94 v -12.98 c -3.85,-1.94 -8.36,-2.97 -13.34,-2.97 -15.8,0 -27.54,10.95 -27.54,26.24 0,15.29 11.74,26.24 27.47,26.24 5.02,0 9.56,-1.03 13.41,-3 v -13.02 c -3.41,3.99 -7.68,6.02 -12.76,6.02 -9.49,0 -16.23,-6.67 -16.23,-16.24 0,-9.57 6.74,-16.23 16.23,-16.23 z"
   id="path64"
   inkscape:connector-curvature="0"
   style="display:inline;fill:#010101" />
	<path
   class="st3"
   d="m 168.21,784.81 c -16.02,0 -27.76,11.17 -27.76,26.24 0,15.08 11.74,26.24 27.76,26.24 15.95,0 27.76,-11.09 27.76,-26.24 0,-15.15 -11.81,-26.24 -27.76,-26.24 z m 0,42.48 c -9.06,0 -15.87,-6.6 -15.87,-16.24 0,-9.64 6.81,-16.23 15.87,-16.23 9.06,0 15.87,6.59 15.87,16.23 0,9.64 -6.81,16.24 -15.87,16.24 z"
   id="path66"
   inkscape:connector-curvature="0"
   style="display:inline;fill:#010101" />
	<path
   class="st3"
   d="m 235.95,786.55 c -2.52,-0.57 -5.23,-0.87 -8.09,-0.87 h -23.05 v 50.74 h 23.05 c 16.6,0 27.98,-10 27.98,-25.37 0,-12.72 -7.79,-21.76 -19.89,-24.5 z m -8.67,40.23 h -10.73 v -31.46 h 10.73 c 10.07,0 16.67,6.02 16.67,15.73 0,9.71 -6.6,15.73 -16.67,15.73 z"
   id="path68"
   inkscape:connector-curvature="0"
   style="display:inline;fill:#010101" />
	<path
   class="st3"
   d="m 275.33,827.87 v 9.42 h 27.61 v -9.42 z m 23.56,-20.88 h -23.56 v 9.13 h 23.56 z"
   id="path70"
   inkscape:connector-curvature="0"
   style="display:inline;fill:#010101" />
	<polygon
   class="st3"
   points="275.33,795.98 275.33,870.19 263.66,870.19 263.66,786.55 302,786.55 302,795.98 "
   id="polygon72"
   style="display:inline;fill:#010101" />
	<path
   class="st3"
   d="m 345.87,820.98 c 6.59,-2.83 10.43,-8.41 10.43,-16.02 0,-11.38 -8.48,-18.41 -22.03,-18.41 h -21.96 v 50.74 h 11.74 v -14.14 h 10.8 l 9.78,14.14 h 12.62 z m -12.25,-7.17 h -9.57 v -17.69 h 9.57 c 7.17,0 10.8,3.26 10.8,8.84 0,5.51 -3.63,8.85 -10.8,8.85 z"
   id="path74"
   inkscape:connector-curvature="0"
   style="display:inline;fill:#010101" />
	<path
   class="st3"
   d="m 375.28,800.03 c 0,-3.19 2.68,-5.79 9.64,-5.79 4.49,0 9.35,1.3 14.06,3.98 l 3.62,-8.91 c -4.71,-2.97 -11.23,-4.5 -17.61,-4.5 -14.42,0 -21.38,7.18 -21.38,15.8 0,18.85 29.5,12.33 29.5,21.82 0,3.12 -2.83,5.44 -9.79,5.44 -6.09,0 -12.46,-2.18 -16.74,-5.3 l -3.99,8.85 c 4.5,3.48 12.61,5.87 20.66,5.87 14.5,0 21.53,-7.25 21.53,-15.73 0,-18.63 -29.5,-12.18 -29.5,-21.53 z"
   id="path76"
   inkscape:connector-curvature="0"
   style="display:inline;fill:#010101" />
	<rect
   x="453.10999"
   y="665.81"
   class="st3"
   width="11.67"
   height="145.24001"
   id="rect78"
   style="display:inline;fill:#010101" />
	<rect
   x="32.41"
   y="724.07001"
   class="st3"
   width="11.67"
   height="146.12"
   id="rect80"
   style="display:inline;fill:#010101" />
	<rect
   x="32.41"
   y="858.52002"
   class="st3"
   width="231.25"
   height="11.67"
   id="rect82"
   style="display:inline;fill:#010101" />
	<rect
   x="32.41"
   y="718.23999"
   class="st3"
   width="30"
   height="11.67"
   id="rect84"
   style="display:inline;fill:#010101" />
	<rect
   x="434.78"
   y="805.21002"
   class="st3"
   width="30"
   height="11.67"
   id="rect86"
   style="display:inline;fill:#010101" />
	<path
   class="st3"
   d="m 149.46,698.71 h -9.64 l -18.7,31.53 -18.99,-31.53 h -9.72 v 50.73 h 11.02 v -29.78 l 14.86,24.42 h 5.29 l 14.93,-25.08 0.07,30.44 h 11.02 z"
   id="path88"
   inkscape:connector-curvature="0"
   style="display:inline;fill:#010101" />
	<path
   class="st3"
   d="m 173.3,740.02 v -11.74 h 23.56 v -9.13 H 173.3 v -11.02 h 26.67 v -9.42 h -38.34 v 50.73 h 39.28 v -9.42 z"
   id="path90"
   inkscape:connector-curvature="0"
   style="display:inline;fill:#010101" />
	<path
   class="st3"
   d="m 204.54,698.71 v 9.57 h 16.23 v 41.16 h 11.74 v -41.16 h 16.24 v -9.57 z"
   id="path92"
   inkscape:connector-curvature="0"
   style="display:inline;fill:#010101" />
	<path
   class="st3"
   d="m 280.06,698.71 h -11.6 l -22.61,50.73 h 12.03 l 4.49,-10.87 h 23.56 l 4.49,10.87 h 12.33 z m -13.92,30.95 8.05,-19.43 8.04,19.43 z"
   id="path94"
   inkscape:connector-curvature="0"
   style="display:inline;fill:#010101" />
	<polygon
   class="st3"
   points="173.3,677.48 173.3,749.44 161.63,749.44 161.63,665.81 464.78,665.81 464.78,677.48 "
   id="polygon96"
   style="display:inline;fill:#010101" />
</g>













<g
   id="g950"><g
     id="g924"
     style="fill:#589edb;fill-opacity:1"><path
       class="st4"
       d="m 150.50027,89.418514 c 0,9.02721 -5.39222,13.324916 -16.67874,13.324916 -11.28651,0 -16.66869,-5.171306 -16.66869,-16.749026 v -9.76022 c 0,-10.77441 5.39222,-16.74903 16.66869,-16.74903 11.28652,0 16.67874,5.17131 16.67874,16.74903 v 8.52513 h -23.29601 v 1.09451 c 0,6.91852 2.69109,8.2239 6.76789,8.2239 4.7295,0 6.69761,-1.67691 6.69761,-4.65921 z m -23.29601,-12.89313 h 13.61612 c 0,-5.39223 -1.01418,-8.37452 -6.69761,-8.37452 -5.90433,0 -6.91851,3.2032 -6.91851,8.37452 z"
       id="path100"
       style="fill:#589edb;fill-opacity:1;stroke-width:1.00413835"
       inkscape:connector-curvature="0" /><path
       class="st4"
       d="m 156.91672,52.104734 9.97109,-1.09451 v 8.37452 h 7.28 v 9.09749 h -7.28 v 18.1247 c 0,4.72949 0.72298,7.93269 7.43062,7.13942 v 8.735996 c -12.67222,1.38572 -17.40171,-2.982286 -17.40171,-15.724796 z"
       id="path102"
       style="fill:#589edb;fill-opacity:1;stroke-width:1.00413835"
       inkscape:connector-curvature="0" /><path
       class="st4"
       d="m 178.68644,73.974874 c -0.65269,-10.70412 5.10102,-15.00183 15.36331,-15.00183 11.21623,0 16.0863,5.60309 16.0863,16.74903 v 26.428916 h -8.1536 l -0.94389,-4.950396 c -2.39989,3.353816 -6.4767,5.532796 -11.28652,5.532796 -7.05909,0 -12.38103,-4.076796 -12.38103,-12.160116 0,-10.12171 8.44481,-14.12822 23.22573,-13.104 0,-6.40641 -1.23509,-9.60961 -6.4767,-9.60961 -4.368,0 -5.97462,1.52629 -5.89429,6.11521 z m 8.1536,15.80513 c 0,2.84172 2.48022,3.78561 5.89429,3.78561 5.824,0 7.43063,-4.22743 7.86241,-8.52514 -10.19201,-1.01418 -13.7567,1.31542 -13.7567,4.73953 z"
       id="path104"
       style="fill:#589edb;fill-opacity:1;stroke-width:1.00413835"
       inkscape:connector-curvature="0" /><path
       style="fill:#589edb;fill-opacity:1;stroke-width:1.00413835"
       d="m 343.92773,0 -13.27539,13.275391 13.27539,13.263671 v -8.24414 H 475.21875 V 123.91016 H 64.455078 V 75.662109 c 0,-5.522761 3.052312,-7.410156 6.908203,-7.410156 4.147092,0 6.396485,2.248723 6.396485,7.771485 v 26.388672 h 9.960937 V 75.953125 c 0.14058,-6.105161 2.982252,-7.701172 6.757813,-7.701172 4.147091,0 6.396484,2.248723 6.396484,7.771485 v 26.388672 h 9.96094 V 76.023438 c 0,-11.627923 -5.31119,-16.789063 -14.177737,-16.789063 -5.452471,0 -9.961667,2.179657 -12.210937,5.523437 -2.038401,-4.06676 -6.325588,-5.453124 -10.542969,-5.453124 -3.84585,-0.150621 -7.701672,1.455254 -10.101563,4.578124 l -0.652343,-4.357421 h -8.646485 -0.0098 v 74.447269 h 0.0098 H 485.2793 V 8.2441406 8.234375 H 343.92773 Z"
       id="rect116"
       inkscape:connector-curvature="0"
       sodipodi:nodetypes="cccccccssscccssccssccccccccccccc" /></g><g
     id="g934"
     style="fill:#f6c41d;fill-opacity:1"><path
       class="st5"
       d="m 258.35478,85.994404 v -10.34262 c 0,-11.28652 5.39222,-16.74903 16.66869,-16.74903 11.28652,0 16.67874,5.17131 16.67874,16.74903 v 10.34262 c 0,11.57772 -5.39222,16.749026 -16.67874,16.749026 -11.28651,-0.01 -16.66869,-5.181346 -16.66869,-16.749026 z m 23.29601,-0.51211 v -9.3184 c 0,-5.31189 -1.38571,-8.37452 -6.62732,-8.37452 -5.2416,0 -6.62731,3.05258 -6.62731,8.37452 v 9.3184 c 0,5.31189 1.38571,8.37452 6.62731,8.37452 5.24161,0 6.62732,-3.06263 6.62732,-8.37452 z"
       id="path106"
       style="fill:#f6c41d;fill-opacity:1;stroke-width:1.00413835"
       inkscape:connector-curvature="0" /><path
       class="st5"
       d="m 320.68165,37.263574 v 25.58544 c -1.67692,-2.84171 -5.3119,-3.79564 -8.79626,-3.79564 -9.53931,0 -14.42947,5.89429 -14.42947,16.02605 v 11.0656 c 0,11.94925 5.68343,16.608446 14.12823,16.608446 4.88011,0 8.45485,-1.89782 10.13176,-4.960436 l 0.72298,4.739526 h 8.21385 V 37.263574 Z m 0,47.99781 c 0,4.9504 -1.8175,8.59543 -6.75786,8.59543 -3.93622,0 -6.47669,-2.03841 -6.47669,-8.23394 v -10.13176 c 0,-5.17131 2.46014,-7.20971 6.75785,-7.20971 4.01656,0 6.4767,1.97815 6.4767,7.13943 z"
       id="path108"
       style="fill:#f6c41d;fill-opacity:1;stroke-width:1.00413835"
       inkscape:connector-curvature="0" /><path
       class="st5"
       d="m 371.65171,89.418514 c 0,9.02721 -5.39222,13.324916 -16.67874,13.324916 -11.28651,0 -16.6687,-5.171306 -16.6687,-16.749026 v -9.76022 c 0,-10.77441 5.39223,-16.74903 16.6687,-16.74903 11.28652,0 16.67874,5.17131 16.67874,16.74903 v 8.52513 H 348.3557 v 1.09451 c 0,6.91852 2.69109,8.2239 6.76789,8.2239 4.72949,0 6.69761,-1.67691 6.69761,-4.65921 z M 348.3557,76.525384 h 13.61612 c 0,-5.39223 -1.01418,-8.37452 -6.69761,-8.37452 -5.89429,0 -6.91851,3.2032 -6.91851,8.37452 z"
       id="path110"
       style="fill:#f6c41d;fill-opacity:1;stroke-width:1.00413835"
       inkscape:connector-curvature="0" /><path
       class="st5"
       d="m 399.61696,70.048684 c -6.47669,-0.8736 -11.57771,1.67692 -11.57771,8.08332 v 24.611426 h -9.9711 V 59.716104 h 9.17783 l 0.44182,4.51862 c 1.7472,-2.98229 6.62731,-5.61313 11.93921,-4.72949 v 10.54345 z"
       id="path112"
       style="fill:#f6c41d;fill-opacity:1;stroke-width:1.00413835"
       inkscape:connector-curvature="0" /><path
       class="st5"
       d="m 425.32291,73.030984 c 0,-3.2735 -2.55051,-4.7295 -5.75372,-4.7295 -3.85589,0 -6.18549,1.52629 -6.18549,4.50859 0,4.72949 4.9504,4.0768 10.70412,4.72949 5.75371,0.65269 11.50742,4.0768 11.50742,11.72833 0,9.3887 -7.35029,13.465496 -16.59841,13.465496 -10.192,0 -16.3072,-5.171306 -16.3072,-13.465496 h 10.12171 c 0.22091,2.98229 1.81749,4.7295 6.62732,4.7295 4.00651,0 6.04491,-2.25932 6.04491,-4.36801 0,-3.63498 -4.72949,-3.71531 -9.90081,-4.368 -6.26582,-0.80331 -12.30069,-3.4944 -12.30069,-11.9392 0,-9.6799 6.91851,-13.97761 16.23692,-13.97761 10.55349,0 15.58422,5.97462 15.58422,13.68641 z"
       id="path114"
       style="fill:#f6c41d;fill-opacity:1;stroke-width:1.00413835"
       inkscape:connector-curvature="0" /><path
       style="fill:#f6c41d;fill-opacity:1;stroke-width:1.00413835"
       d="m 0,8.234375 v 0.00977 125.7265594 0.002 l 25.886719,-0.002 v 8.23633 L 39.152344,128.93164 25.886719,115.66602 v 8.24414 H 10.060547 V 18.294922 H 321.23438 l -5.02149,-5.019531 5.04102,-5.041016 z"
       id="rect120"
       inkscape:connector-curvature="0"
       sodipodi:nodetypes="ccccccccccccccc" /><g
       id="g128"
       style="fill:#f6c41d;fill-opacity:1"
       transform="matrix(1.0041384,0,0,1.0041384,-259.42918,-430.96616)">
	<path
   class="st5"
   d="m 499.72,504.72 c 0,-4.85 -1.74,-7.24 -6.66,-7.24 -5.5,0 -7.09,3.04 -7.09,8.32 v 9.27 c 0,5.28 1.38,8.33 6.59,8.33 5.21,0 7.09,-2.25 7.17,-7.31 h 9.41 c 0,11.51 -5.36,16.14 -16.58,16.14 -11.22,0 -16.58,-5.14 -16.58,-16.87 v -9.56 c 0,-11.51 5.65,-17.16 16.87,-17.16 11.22,0 16.29,4.56 16.29,16.07 h -9.42 z"
   id="path126"
   style="fill:#f6c41d;fill-opacity:1"
   inkscape:connector-curvature="0" />
</g></g></g>
<g
   id="g132"
   style="fill:#f9a21d;fill-opacity:1"
   transform="matrix(1.0041384,0,0,1.0041384,-259.42918,-430.96616)">
	
</g>


</svg>