<?xml version="1.0" encoding="UTF-8" standalone="no"?>
<svg
   xmlns:dc="http://purl.org/dc/elements/1.1/"
   xmlns:cc="http://creativecommons.org/ns#"
   xmlns:rdf="http://www.w3.org/1999/02/22-rdf-syntax-ns#"
   xmlns:svg="http://www.w3.org/2000/svg"
   xmlns="http://www.w3.org/2000/svg"
   xmlns:sodipodi="http://sodipodi.sourceforge.net/DTD/sodipodi-0.dtd"
   xmlns:inkscape="http://www.inkscape.org/namespaces/inkscape"
   height="100px"
   width="100px"
   fill="#000000"
   version="1.1"
   x="0px"
   y="0px"
   viewBox="0 0 100 100"
   style="enable-background:new 0 0 100 100;"
   xml:space="preserve"
   id="svg5790"
   sodipodi:docname="school-supplies.svg"
   inkscape:version="0.92.4 (5da689c313, 2019-01-14)"><metadata
     id="metadata5796"><rdf:RDF><cc:Work
         rdf:about=""><dc:format>image/svg+xml</dc:format><dc:type
           rdf:resource="http://purl.org/dc/dcmitype/StillImage" /></cc:Work></rdf:RDF></metadata><defs
     id="defs5794" /><sodipodi:namedview
     pagecolor="#ffffff"
     bordercolor="#666666"
     borderopacity="1"
     objecttolerance="10"
     gridtolerance="10"
     guidetolerance="10"
     inkscape:pageopacity="0"
     inkscape:pageshadow="2"
     inkscape:window-width="1920"
     inkscape:window-height="1057"
     id="namedview5792"
     showgrid="false"
     inkscape:zoom="6.675088"
     inkscape:cx="56.692898"
     inkscape:cy="54.422371"
     inkscape:window-x="-8"
     inkscape:window-y="-8"
     inkscape:window-maximized="1"
     inkscape:current-layer="svg5790" /><path
     style="fill:#28a745;fill-opacity:1;stroke:none;stroke-opacity:1"
     d="M 39.646484 30.974609 C 39.390734 30.974609 39.134953 31.072078 38.939453 31.267578 C 33.943453 36.263578 33.943453 44.391719 38.939453 49.386719 L 53.017578 63.466797 L 47.091797 69.392578 C 43.316797 69.038578 39.735781 70.616688 37.425781 73.679688 C 34.507781 77.547687 34.593906 83.103625 37.628906 86.890625 C 39.564906 89.306625 42.433 90.788031 45.5 90.957031 C 45.698 90.968031 45.89675 90.974609 46.09375 90.974609 C 48.95375 90.974609 51.715094 89.838641 53.746094 87.806641 C 56.041094 85.511641 57.162375 82.384156 56.859375 79.160156 L 62.785156 73.234375 L 68.710938 79.160156 C 68.408937 82.383156 69.527266 85.511641 71.822266 87.806641 C 73.931266 89.915641 76.701656 90.970703 79.472656 90.970703 C 82.243656 90.970703 85.014047 89.915641 87.123047 87.806641 C 91.341047 83.588641 91.341047 76.723859 87.123047 72.505859 C 84.828047 70.210859 81.701516 69.089531 78.478516 69.394531 L 72.550781 63.46875 L 86.630859 49.388672 C 91.627859 44.391672 91.626859 36.263578 86.630859 31.267578 C 86.239859 30.876578 85.607797 30.876578 85.216797 31.267578 L 62.785156 53.699219 L 40.353516 31.267578 C 40.158016 31.072078 39.902234 30.974609 39.646484 30.974609 z M 62.832031 61.974609 C 63.520031 61.974609 64.082031 62.534656 64.082031 63.222656 C 64.082031 63.911656 63.520031 64.470703 62.832031 64.470703 C 62.144031 64.470703 61.585938 63.911656 61.585938 63.222656 C 61.585938 62.534656 62.144031 61.974609 62.832031 61.974609 z M 79.539062 75.480469 C 80.770062 75.480469 81.928828 75.959078 82.798828 76.830078 C 84.594828 78.626078 84.594828 81.551656 82.798828 83.347656 C 81.928828 84.217656 80.770062 84.697266 79.539062 84.697266 C 78.309062 84.697266 77.15125 84.218656 76.28125 83.347656 C 74.48525 81.551656 74.48525 78.626078 76.28125 76.830078 C 77.15125 75.960078 78.308063 75.480469 79.539062 75.480469 z M 46.378906 75.484375 C 47.558906 75.484375 48.738719 75.932078 49.636719 76.830078 C 51.432719 78.626078 51.432719 81.551656 49.636719 83.347656 C 47.840719 85.143656 44.917141 85.144656 43.119141 83.347656 C 41.323141 81.551656 41.323141 78.626078 43.119141 76.830078 C 44.017141 75.932078 45.198906 75.484375 46.378906 75.484375 z "
     id="path5776" /><path
     style="fill:#28a745;fill-opacity:1;stroke:none"
     d="M 56.867188 11.082031 C 56.316187 11.111031 55.770813 11.247187 55.257812 11.492188 C 54.231812 11.982188 53.458125 12.842062 53.078125 13.914062 L 50.703125 20.632812 C 49.920125 22.845812 51.083875 25.281453 53.296875 26.064453 L 67.853516 31.212891 C 68.317516 31.376891 68.797391 31.458984 69.275391 31.458984 C 69.901391 31.458984 70.525422 31.319969 71.107422 31.042969 C 72.133422 30.552969 72.907109 29.691141 73.287109 28.619141 L 75.662109 21.900391 C 76.041109 20.828391 75.980234 19.674438 75.490234 18.648438 C 75.000234 17.622438 74.139359 16.84875 73.068359 16.46875 L 58.509766 11.320312 C 57.973766 11.131312 57.418188 11.053031 56.867188 11.082031 z "
     id="path5784" /><path
     style="fill:#28a745;fill-opacity:1;stroke:none"
     d="M 15.986328 10 C 13.782328 10 11.990234 11.792094 11.990234 13.996094 L 11.990234 17.25 L 11.126953 17.25 C 10.574953 17.25 10.126953 17.698 10.126953 18.25 L 10.126953 74.75 C 10.125953 75.302 10.573 75.75 11.125 75.75 L 11.400391 75.75 L 17.625 87.103516 L 17.625 89 C 17.625 89.552 18.073 90 18.625 90 C 19.177 90 19.625 89.552 19.625 89 L 19.625 87.072266 L 25.728516 75.75 L 26 75.75 C 26.552 75.75 27 75.302 27 74.75 L 27 43.072266 C 27.419 45.422266 28.498062 47.366344 30.664062 48.402344 C 30.803062 48.468344 30.950703 48.5 31.095703 48.5 C 31.468703 48.5 31.826047 48.290641 31.998047 47.931641 C 32.236047 47.432641 32.025344 46.835656 31.527344 46.597656 C 26.567344 44.225656 29.479359 34.066391 31.068359 28.525391 C 31.901359 25.619391 31.718391 23.429625 30.525391 22.015625 C 29.424391 20.711625 27.816953 20.504234 27.001953 20.490234 L 27.001953 18.25 C 27.001953 17.698 26.553953 17.25 26.001953 17.25 L 25.136719 17.25 L 25.136719 13.996094 C 25.136719 11.792094 23.344625 10 21.140625 10 L 15.986328 10 z M 27.001953 22.488281 C 27.472953 22.499281 28.412047 22.611688 28.998047 23.304688 C 29.724047 24.164687 29.775047 25.779641 29.123047 28.056641 C 28.404047 30.565641 27.428953 33.975219 27.001953 37.324219 L 27.001953 22.488281 z "
     id="path5786" /></svg>