<svg height='75px' width='100px'  fill="#000000" xmlns="http://www.w3.org/2000/svg" xmlns:xlink="http://www.w3.org/1999/xlink" version="1.1" x="0px" y="0px" viewBox="-25 -25 150 150" style="enable-background:new 0 0 100 100;" xml:space="preserve"><path d="M20.7822266,42.4453125c0.2827148,0.1845703,0.6396484,0.2143555,0.9482422,0.0791016  c13.5957031-5.9458008,21.215332,0.9091797,21.5302734,1.2021484c0.1889648,0.1777344,0.4350586,0.2714844,0.6845703,0.2714844  c0.1342773,0,0.269043-0.0268555,0.3969727-0.0820312c0.3662109-0.1586914,0.6030273-0.519043,0.6030273-0.9179688v-16  c0-0.2758789-0.1142578-0.5395508-0.3154297-0.7285156c-0.3540039-0.3330078-8.8408203-8.0766602-23.7011719-1.5771484  c-0.3637695,0.1591797-0.5991211,0.5185547-0.5991211,0.9160156v16C20.3295898,41.9458008,20.5,42.2607422,20.7822266,42.4453125z   M22.3295898,26.269043c11.8735352-4.9291992,19.0493164-0.0634766,20.6157227,1.1904297v13.5585938  c-1.9501953-1.2299805-5.5463867-2.9145508-10.6162109-2.9145508c-2.8710938,0-6.2158203,0.5410156-9.9995117,2.0102539V26.269043z"></path><path d="M21.7304688,50.5244141c13.5957031-5.9458008,21.215332,0.909668,21.5302734,1.2021484  c0.1928711,0.1816406,0.4389648,0.2714844,0.6845703,0.2714844c0.2661133,0,0.5317383-0.105957,0.7285156-0.3154297  c0.378418-0.4023438,0.3588867-1.0351562-0.0439453-1.4130859c-0.3540039-0.3334961-8.8408203-8.0766602-23.7011719-1.5771484  c-0.5058594,0.2211914-0.7368164,0.8105469-0.5151367,1.3168945C20.6347656,50.5151367,21.2226562,50.7456055,21.7304688,50.5244141  z"></path><path d="M21.7304688,58.5244141c13.5957031-5.9453125,21.215332,0.909668,21.5297852,1.2021484  c0.1933594,0.1816406,0.4394531,0.2714844,0.6850586,0.2714844c0.2661133,0,0.5317383-0.105957,0.7285156-0.3149414  c0.378418-0.402832,0.3588867-1.0356445-0.043457-1.4135742c-0.3544922-0.3334961-8.8413086-8.0761719-23.7016602-1.5771484  c-0.5058594,0.2211914-0.7368164,0.8105469-0.5151367,1.3168945C20.6347656,58.5146484,21.2246094,58.7456055,21.7304688,58.5244141  z"></path><path d="M43.9453125,67.9980469c0.2661133,0,0.5317383-0.105957,0.7285156-0.3149414  c0.378418-0.402832,0.3588867-1.0356445-0.043457-1.4135742c-0.3544922-0.3334961-8.8413086-8.0761719-23.7016602-1.5771484  c-0.5058594,0.2211914-0.7368164,0.8105469-0.5151367,1.3168945c0.2211914,0.5063477,0.8110352,0.737793,1.3168945,0.5151367  c13.5957031-5.9453125,21.215332,0.909668,21.5297852,1.2021484C43.4536133,67.9082031,43.699707,67.9980469,43.9453125,67.9980469z  "></path><path d="M89.3164062,15.4506836h-3.8144531V14.796875c0-0.3847656-0.2207031-0.7353516-0.5673828-0.9018555  c-19.2446289-9.2299805-31.5834961-0.6674805-34.6098633,1.8588867c-1.2592773-1.0756836-4.1704102-3.2397461-8.6166992-4.6782227  c-5.484375-1.7753906-14.4492188-2.7265625-26.0102539,2.8193359c-0.3466797,0.1665039-0.5673828,0.5170898-0.5673828,0.9018555  v0.6538086h-3.8139648c-0.5522461,0-1,0.4477539-1,1v69.25c0,0.5522461,0.4477539,1,1,1h33.7792969  c1.081543,1.9145508,3.1132812,3.1191406,5.3457031,3.1191406s4.2641602-1.2045898,5.3457031-3.1191406h33.5292969  c0.5522461,0,1-0.4477539,1-1v-69.25C90.3164062,15.8984375,89.8686523,15.4506836,89.3164062,15.4506836z M83.5019531,15.4306641  v62.5292969c-16.7991943-7.4260254-28.0921631-1.2648315-32.1890869,1.7471313  c-0.0350952-21.3410034-0.0765381-58.0858765-0.0103149-62.1672363  C53.1798096,15.8023682,64.4436646,6.5740967,83.5019531,15.4306641z M17.1303711,15.4306641  c18.9969482-8.8277588,30.2510986,0.3129883,32.1809082,2.0916748c-0.0817261,5.1498413-0.0299072,43.1364136,0.0015259,62.1555176  c-1.5371094-1.1486206-4.0799561-2.7371826-7.6047974-3.8775635c-2.3730469-0.7675781-5.3969727-1.3813477-9.0014648-1.3813477  c-4.3789062,0-9.6137695,0.9057617-15.5761719,3.5410156V15.4306641z M88.3164062,84.7006836H55.1679688  c-0.3999023,0-0.7612305,0.2382812-0.9189453,0.605957c-0.6547852,1.5268555-2.1494141,2.5131836-3.8076172,2.5131836  s-3.152832-0.9863281-3.8076172-2.5131836c-0.1577148-0.3676758-0.519043-0.605957-0.9189453-0.605957H12.3164062v-67.25h2.8139648  v62.0712891c0,0.34375,0.1762695,0.6630859,0.4672852,0.8461914c0.2910156,0.1826172,0.6547852,0.203125,0.965332,0.0556641  c20.8520508-10.0019531,32.5498047,1.6010742,33.0371094,2.0996094c0.0016479,0.0016479,0.0040283,0.0021973,0.0056763,0.0038452  c0.1812744,0.1837158,0.4321289,0.2984009,0.7106323,0.2984009c0.0004883,0,0.0009766,0,0.0019531,0  c0.2784424-0.0004883,0.5291138-0.1154175,0.710083-0.2993164c0.0012207-0.0012817,0.0030518-0.0016479,0.0042725-0.0029297  c0.487793-0.4990234,12.1860352-12.1015625,33.0366211-2.0996094c0.3100586,0.1474609,0.6748047,0.1269531,0.965332-0.0556641  c0.2910156-0.1831055,0.4672852-0.5024414,0.4672852-0.8461914V17.4506836h2.8144531V84.7006836z"></path><path d="M60.4472656,33.4970703l-1.1420898,6.4335938c-0.0664062,0.3735352,0.0839844,0.7519531,0.3886719,0.9780273  c0.3046875,0.2255859,0.7109375,0.2592773,1.0483398,0.0883789l6.0229492-3.059082l6.0234375,3.059082  c0.1430664,0.0727539,0.2978516,0.1083984,0.4526367,0.1083984c0.2104492,0,0.4199219-0.0664062,0.5957031-0.1967773  c0.3046875-0.2260742,0.4550781-0.6044922,0.3886719-0.9780273l-1.1420898-6.4335938l4.8452148-4.5620117  c0.2797852-0.2636719,0.3837891-0.6645508,0.2675781-1.03125c-0.1166992-0.3662109-0.4331055-0.6337891-0.8139648-0.6870117  l-6.7255859-0.9443359l-3.0009766-5.8745117c-0.3417969-0.6689453-1.4394531-0.6689453-1.78125,0l-3.0009766,5.8745117  l-6.7255859,0.9443359c-0.3808594,0.0532227-0.6972656,0.3208008-0.8139648,0.6870117  c-0.1162109,0.3666992-0.012207,0.7675781,0.2675781,1.03125L60.4472656,33.4970703z M63.6665039,28.1806641  c0.3227539-0.0454102,0.6030273-0.2451172,0.7514648-0.5351562l2.347168-4.5947266l2.347168,4.5947266  c0.1484375,0.2900391,0.4287109,0.4897461,0.7514648,0.5351562l5.1767578,0.7270508l-3.7216797,3.5039062  c-0.2456055,0.2314453-0.3579102,0.5708008-0.2988281,0.902832l0.8862305,4.9912109l-4.6884766-2.3808594  c-0.1420898-0.0722656-0.2973633-0.1083984-0.4526367-0.1083984s-0.3105469,0.0361328-0.4526367,0.1083984l-4.6879883,2.3808594  l0.8862305-4.9912109c0.059082-0.3320312-0.0532227-0.671875-0.2988281-0.902832l-3.722168-3.5039062L63.6665039,28.1806641z"></path><path d="M77.3823242,53.3041992l-6.7255859-0.9438477l-3.0009766-5.8745117c-0.3417969-0.6689453-1.4394531-0.6689453-1.78125,0  l-3.0009766,5.8745117l-6.7255859,0.9438477c-0.3808594,0.0532227-0.6972656,0.3208008-0.8139648,0.6870117  c-0.1162109,0.3666992-0.012207,0.7675781,0.2675781,1.03125l4.8457031,4.5625l-1.1420898,6.4331055  c-0.0664062,0.3730469,0.0839844,0.7519531,0.3886719,0.9780273c0.1757812,0.1303711,0.3852539,0.1967773,0.5957031,0.1967773  c0.1547852,0,0.3095703-0.0356445,0.4526367-0.1083984l6.0229492-3.0585938l6.0234375,3.0585938  c0.3378906,0.1713867,0.7441406,0.1376953,1.0483398-0.0883789c0.3046875-0.2260742,0.4550781-0.6049805,0.3886719-0.9780273  l-1.1420898-6.4331055l4.8452148-4.5625c0.2797852-0.2636719,0.3837891-0.6645508,0.2675781-1.03125  C78.0795898,53.625,77.7631836,53.3574219,77.3823242,53.3041992z M71.3188477,58.4995117  c-0.2456055,0.2314453-0.3579102,0.5708008-0.2988281,0.902832l0.8862305,4.9912109l-4.6884766-2.3808594  c-0.1420898-0.0722656-0.2973633-0.1083984-0.4526367-0.1083984s-0.3105469,0.0361328-0.4526367,0.1083984l-4.6879883,2.3803711  l0.8862305-4.9907227c0.059082-0.3320312-0.0532227-0.6713867-0.2988281-0.902832l-3.722168-3.5043945l5.1767578-0.7265625  c0.3227539-0.0454102,0.6030273-0.2451172,0.7514648-0.5351562l2.347168-4.5947266l2.347168,4.5947266  c0.1484375,0.2900391,0.4287109,0.4897461,0.7514648,0.5351562l5.1767578,0.7265625L71.3188477,58.4995117z"></path></svg>
