<?xml version="1.0" encoding="UTF-8" standalone="no"?>
<svg
   xmlns:dc="http://purl.org/dc/elements/1.1/"
   xmlns:cc="http://creativecommons.org/ns#"
   xmlns:rdf="http://www.w3.org/1999/02/22-rdf-syntax-ns#"
   xmlns:svg="http://www.w3.org/2000/svg"
   xmlns="http://www.w3.org/2000/svg"
   xmlns:sodipodi="http://sodipodi.sourceforge.net/DTD/sodipodi-0.dtd"
   xmlns:inkscape="http://www.inkscape.org/namespaces/inkscape"
   inkscape:version="1.0 (4035a4f, 2020-05-01)"
   sodipodi:docname="mc-diagram.svg"
   id="svg8"
   version="1.1"
   viewBox="0 0 114.18479 130.09428"
   height="130.09428mm"
   width="114.18479mm">
  <defs
     id="defs2">
    <marker
       inkscape:stockid="Arrow1Mend"
       orient="auto"
       refY="0"
       refX="0"
       id="marker2094"
       style="overflow:visible"
       inkscape:isstock="true">
      <path
         id="path2092"
         d="M 0,0 5,-5 -12.5,0 5,5 Z"
         style="fill:#000000;fill-opacity:1;fill-rule:evenodd;stroke:#000000;stroke-width:1pt;stroke-opacity:1"
         transform="matrix(-0.4,0,0,-0.4,-4,0)" />
    </marker>
    <marker
       inkscape:isstock="true"
       style="overflow:visible"
       id="marker1992"
       refX="0"
       refY="0"
       orient="auto"
       inkscape:stockid="Arrow1Mend">
      <path
         transform="matrix(-0.4,0,0,-0.4,-4,0)"
         style="fill:#000000;fill-opacity:1;fill-rule:evenodd;stroke:#000000;stroke-width:1pt;stroke-opacity:1"
         d="M 0,0 5,-5 -12.5,0 5,5 Z"
         id="path1990" />
    </marker>
    <marker
       inkscape:collect="always"
       inkscape:stockid="Arrow1Mend"
       orient="auto"
       refY="0"
       refX="0"
       id="marker1896"
       style="overflow:visible"
       inkscape:isstock="true">
      <path
         id="path1894"
         d="M 0,0 5,-5 -12.5,0 5,5 Z"
         style="fill:#00ff00;fill-opacity:1;fill-rule:evenodd;stroke:#00ff00;stroke-width:1pt;stroke-opacity:1"
         transform="matrix(-0.4,0,0,-0.4,-4,0)" />
    </marker>
    <marker
       inkscape:collect="always"
       inkscape:isstock="true"
       style="overflow:visible"
       id="marker1830"
       refX="0"
       refY="0"
       orient="auto"
       inkscape:stockid="Arrow1Mend">
      <path
         transform="matrix(-0.4,0,0,-0.4,-4,0)"
         style="fill:#eabd00;fill-opacity:1;fill-rule:evenodd;stroke:#eabd00;stroke-width:1pt;stroke-opacity:1"
         d="M 0,0 5,-5 -12.5,0 5,5 Z"
         id="path1828" />
    </marker>
    <marker
       inkscape:collect="always"
       inkscape:stockid="Arrow1Mend"
       orient="auto"
       refY="0"
       refX="0"
       id="marker1758"
       style="overflow:visible"
       inkscape:isstock="true">
      <path
         id="path1756"
         d="M 0,0 5,-5 -12.5,0 5,5 Z"
         style="fill:#ff7900;fill-opacity:1;fill-rule:evenodd;stroke:#ff7900;stroke-width:1pt;stroke-opacity:1"
         transform="matrix(-0.4,0,0,-0.4,-4,0)" />
    </marker>
    <marker
       inkscape:collect="always"
       inkscape:isstock="true"
       style="overflow:visible"
       id="Arrow1Mend"
       refX="0"
       refY="0"
       orient="auto"
       inkscape:stockid="Arrow1Mend">
      <path
         transform="matrix(-0.4,0,0,-0.4,-4,0)"
         style="fill:#ff0000;fill-opacity:1;fill-rule:evenodd;stroke:#ff0000;stroke-width:1pt;stroke-opacity:1"
         d="M 0,0 5,-5 -12.5,0 5,5 Z"
         id="path1311" />
    </marker>
    <marker
       inkscape:isstock="true"
       style="overflow:visible"
       id="marker1672"
       refX="0"
       refY="0"
       orient="auto"
       inkscape:stockid="Arrow1Mstart">
      <path
         transform="matrix(0.4,0,0,0.4,4,0)"
         style="fill:#ff00c1;fill-opacity:1;fill-rule:evenodd;stroke:#ff00c1;stroke-width:1pt;stroke-opacity:1"
         d="M 0,0 5,-5 -12.5,0 5,5 Z"
         id="path1670" />
    </marker>
    <marker
       inkscape:isstock="true"
       style="overflow:visible"
       id="Arrow2Lstart"
       refX="0"
       refY="0"
       orient="auto"
       inkscape:stockid="Arrow2Lstart">
      <path
         transform="matrix(1.1,0,0,1.1,1.1,0)"
         d="M 8.7185878,4.0337352 -2.2072895,0.01601326 8.7185884,-4.0017078 c -1.7454984,2.3720609 -1.7354408,5.6174519 -6e-7,8.035443 z"
         style="fill:#000000;fill-opacity:1;fill-rule:evenodd;stroke:#000000;stroke-width:0.625;stroke-linejoin:round;stroke-opacity:1"
         id="path1320" />
    </marker>
    <marker
       inkscape:isstock="true"
       style="overflow:visible"
       id="marker1600"
       refX="0"
       refY="0"
       orient="auto"
       inkscape:stockid="Arrow1Mstart">
      <path
         transform="matrix(0.4,0,0,0.4,4,0)"
         style="fill:#0091ff;fill-opacity:1;fill-rule:evenodd;stroke:#0091ff;stroke-width:1pt;stroke-opacity:1"
         d="M 0,0 5,-5 -12.5,0 5,5 Z"
         id="path1598" />
    </marker>
    <marker
       inkscape:isstock="true"
       style="overflow:visible"
       id="Arrow1Mstart"
       refX="0"
       refY="0"
       orient="auto"
       inkscape:stockid="Arrow1Mstart">
      <path
         transform="matrix(0.4,0,0,0.4,4,0)"
         style="fill:#000000;fill-opacity:1;fill-rule:evenodd;stroke:#000000;stroke-width:1pt;stroke-opacity:1"
         d="M 0,0 5,-5 -12.5,0 5,5 Z"
         id="path1308" />
    </marker>
    <marker
       inkscape:isstock="true"
       style="overflow:visible"
       id="Arrow1Lstart"
       refX="0"
       refY="0"
       orient="auto"
       inkscape:stockid="Arrow1Lstart">
      <path
         transform="matrix(0.8,0,0,0.8,10,0)"
         style="fill:#000000;fill-opacity:1;fill-rule:evenodd;stroke:#000000;stroke-width:1pt;stroke-opacity:1"
         d="M 0,0 5,-5 -12.5,0 5,5 Z"
         id="path1302" />
    </marker>
  </defs>
  <sodipodi:namedview
     fit-margin-bottom="0"
     fit-margin-right="0"
     fit-margin-left="0"
     fit-margin-top="0"
     showguides="false"
     inkscape:snap-global="false"
     inkscape:window-maximized="0"
     inkscape:window-y="0"
     inkscape:window-x="0"
     inkscape:window-height="1080"
     inkscape:window-width="1920"
     showgrid="false"
     inkscape:document-rotation="0"
     inkscape:current-layer="layer1"
     inkscape:document-units="mm"
     inkscape:cy="240.72843"
     inkscape:cx="36.150293"
     inkscape:zoom="0.7"
     inkscape:pageshadow="2"
     inkscape:pageopacity="0.0"
     borderopacity="1.0"
     bordercolor="#666666"
     pagecolor="#ffffff"
     id="base" />
  <metadata
     id="metadata5">
    <rdf:RDF>
      <cc:Work
         rdf:about="">
        <dc:format>image/svg+xml</dc:format>
        <dc:type
           rdf:resource="http://purl.org/dc/dcmitype/StillImage" />
        <dc:title></dc:title>
      </cc:Work>
    </rdf:RDF>
  </metadata>
  <g
     transform="translate(-46.375711,-76.914411)"
     id="layer1"
     inkscape:groupmode="layer"
     inkscape:label="Layer 1">
    <g
       transform="matrix(0.29256853,0,0,0.2924029,93.389282,178.46117)"
       id="g315"
       style="fill:#00bf00;fill-opacity:1">
      <path
         style="fill:#00bf00;fill-opacity:1;fill-rule:evenodd;stroke:none;stroke-width:1"
         id="path292"
         d="m 45.6411,46 c 0.172,-0.248 0.332,-0.512 0.501,-0.765 0.279,-0.412 0.566,-0.826 0.825,-1.235 h 5.033 c 0.552,0 1,-0.448 1,-1 v -7 h 4.131 l -2.963,4.445 c -0.224,0.336 -0.224,0.774 0,1.11 L 57.1311,46 Z m -15.105,8.844 c -0.164,0.104 -0.35,0.156 -0.536,0.156 -0.186,0 -0.372,-0.052 -0.536,-0.156 -4.806,-3.05 -8.608,-6.605 -11.621,-10.844 h 2.476 c 2.601,3.369 5.787,6.267 9.681,8.811 3.894,-2.544 7.079,-5.442 9.681,-8.811 h 2.476 c -3.014,4.239 -6.815,7.794 -11.621,10.844 z M 2.8691,46 5.8321,41.555 c 0.224,-0.336 0.224,-0.774 0,-1.11 L 2.8691,36 h 4.131 v 7 c 0,0.552 0.448,1 1,1 h 5.033 c 0.258,0.409 0.546,0.823 0.825,1.235 0.169,0.253 0.328,0.517 0.501,0.765 z m 5.424,-32.707 9,-9 C 17.4801,4.105 17.7351,4 18.0001,4 h 24 c 0.265,0 0.519,0.105 0.707,0.293 l 9,9 c 0.195,0.195 0.301,0.462 0.292,0.739 -0.164,5.204 -1.155,10.569 -2.925,15.968 h -2.099 c 1.792,-5.279 2.804,-10.522 3.01,-15.601 L 41.5861,6 h -23.172 l -8.399,8.399 c 0.206,5.079 1.217,10.322 3.009,15.601 h -2.098 c -1.77,-5.399 -2.761,-10.764 -2.926,-15.968 -0.008,-0.277 0.098,-0.544 0.293,-0.739 z M 46.4121,42 h -4.763 -23.299 -4.762 -4.588 v -7 -3 h 3.312 35.376 3.312 v 3 7 z m 9.79,-1 3.63,-5.445 c 0.205,-0.307 0.224,-0.701 0.05,-1.027 C 59.7071,34.203 59.3691,34 59.0001,34 h -6 v -3 c 0,-0.024 -0.012,-0.044 -0.014,-0.068 1.968,-6.15 3.014,-12.686 3.014,-18.932 0,-0.265 -0.106,-0.52 -0.293,-0.707 l -11,-11 C 44.5191,0.105 44.2651,0 44.0001,0 h -28 c -0.265,0 -0.52,0.105 -0.707,0.293 l -11,11 c -0.188,0.187 -0.293,0.442 -0.293,0.707 0,6.246 1.045,12.782 3.014,18.932 -0.002,0.024 -0.014,0.044 -0.014,0.068 v 3 h -6 c -0.369,0 -0.708,0.203 -0.882,0.528 -0.174,0.326 -0.155,0.72 0.05,1.027 l 3.63,5.445 -3.63,5.445 c -0.205,0.307 -0.224,0.701 -0.05,1.027 0.174,0.325 0.513,0.528 0.882,0.528 h 14.839 c 3.823,4.952 8.399,8.942 13.675,11.874 0.151,0.084 0.318,0.126 0.486,0.126 0.167,0 0.334,-0.042 0.486,-0.126 5.276,-2.932 9.852,-6.922 13.675,-11.874 h 14.839 c 0.369,0 0.707,-0.203 0.882,-0.528 0.174,-0.326 0.155,-0.72 -0.05,-1.027 z" />
    </g>
    <g
       transform="matrix(0.19475097,0,0,0.19464072,138.70827,114.89718)"
       id="g335"
       style="fill:#de5800;fill-opacity:1">
      <path
         style="fill:#de5800;fill-opacity:1"
         d="M 93.8,6.8 H 6.2 c -2.1,0 -3.7,1.7 -3.7,3.7 v 63.3 c 0,2.1 1.7,3.7 3.7,3.7 h 40 v 8.2 h -7.8 c -2.1,0 -3.7,1.7 -3.7,3.7 0,2 1.7,3.7 3.7,3.7 h 23 c 2.1,0 3.7,-1.7 3.7,-3.7 0,-2 -1.7,-3.7 -3.7,-3.7 h -7.8 v -8.2 h 40 c 2.1,0 3.7,-1.7 3.7,-3.7 V 10.5 C 97.5,8.4 95.8,6.8 93.8,6.8 Z M 36,51.5 c 1.5,1.5 1.5,3.8 0,5.3 -0.7,0.7 -1.7,1.1 -2.6,1.1 -0.9,0 -1.9,-0.4 -2.6,-1.1 l -12,-12 c -0.7,-0.7 -1.1,-1.7 -1.1,-2.6 0,-1 0.4,-1.9 1.1,-2.6 L 30.7,27.7 c 1.5,-1.5 3.8,-1.5 5.3,0 1.5,1.5 1.5,3.8 0,5.3 l -9.3,9.3 z M 57.5,31.4 49.6,55.3 c -0.5,1.6 -2,2.6 -3.5,2.6 -0.4,0 -0.8,-0.1 -1.2,-0.2 -2,-0.7 -3,-2.8 -2.4,-4.7 l 7.9,-23.9 c 0.6,-2 2.8,-3 4.7,-2.4 2,0.6 3.1,2.7 2.4,4.7 z M 81.2,44.8 69.3,56.7 c -0.7,0.7 -1.7,1.1 -2.6,1.1 -0.9,0 -1.9,-0.4 -2.6,-1.1 -1.5,-1.5 -1.5,-3.8 0,-5.3 L 73.4,42.1 64,32.9 c -1.5,-1.5 -1.5,-3.8 0,-5.3 1.5,-1.5 3.8,-1.5 5.3,0 l 11.9,11.9 c 0.7,0.7 1.1,1.7 1.1,2.6 0,1.1 -0.4,2 -1.1,2.7 z"
         id="path317" />
    </g>
    <g
       transform="matrix(0.24282968,0,0,0.23746168,47.994249,111.89888)"
       id="g354"
       style="fill:#c600ab;fill-opacity:1">
      <g
         style="fill:#c600ab;fill-opacity:1"
         id="g341">
        <path
           style="fill:#c600ab;fill-opacity:1"
           d="m 48,43.3 c 9.7,0 17.7,-7.9 17.7,-17.7 C 65.7,15.9 57.7,8 48,8 38.3,8 30.3,15.9 30.3,25.7 c 0,9.7 8,17.6 17.7,17.6 z"
           id="path337" />
        <path
           style="fill:#c600ab;fill-opacity:1"
           d="m 63.4,44.3 c -0.6,0 -1.1,0.2 -1.5,0.6 -3.7,3.6 -8.7,5.6 -13.9,5.6 -5.2,0 -10.1,-2 -13.9,-5.6 -0.4,-0.4 -1,-0.6 -1.5,-0.6 -10.9,0.8 -19.5,10 -19.5,21 V 75 c 0,7.2 5.8,13 13,13 h 43.7 c 7.2,0 13,-5.8 13,-13 v -9.7 c 0.1,-11 -8.5,-20.2 -19.4,-21 z M 39.7,72.6 c 0.8,0.8 0.8,2 0,2.8 -0.4,0.4 -0.9,0.6 -1.4,0.6 -0.5,0 -1,-0.2 -1.4,-0.6 l -5.1,-5.1 c -0.8,-0.8 -0.8,-2 0,-2.8 l 5.1,-5.1 c 0.8,-0.8 2,-0.8 2.8,0 0.8,0.8 0.8,2.1 0,2.9 L 36,69 Z m 13.4,-13 -5.6,19.9 c -0.2,0.9 -1,1.5 -1.9,1.5 -0.1,0 -0.3,0 -0.5,-0.1 -1.1,-0.3 -1.7,-1.4 -1.4,-2.5 l 5.6,-19.9 c 0.3,-1.1 1.4,-1.7 2.5,-1.4 1,0.3 1.6,1.4 1.3,2.5 z m 11.1,10.8 -5.1,5.1 c -0.4,0.4 -0.9,0.6 -1.4,0.6 -0.5,0 -1,-0.2 -1.4,-0.6 -0.8,-0.8 -0.8,-2 0,-2.8 L 60,69 56.3,65.2 c -0.8,-0.8 -0.8,-2 0,-2.8 0.8,-0.8 2,-0.8 2.8,0 l 5.1,5.2 c 0.8,0.8 0.8,2 0,2.8 z"
           id="path339" />
      </g>
    </g>
    <g
       transform="matrix(0.20294086,0,0,0.20282597,50.95168,157.573)"
       id="g373"
       style="fill:#0000c2;fill-opacity:1">
      <path
         style="fill:#0000c2;fill-opacity:1"
         d="m 27.755,37.985 c -0.59,0.15 -1.189,0.281 -1.812,0.372 -7.471,1.098 -14.188,-2.523 -15.004,-8.087 l 27.053,-3.971 c 0.344,2.337 -0.422,4.641 -1.965,6.613 3.297,-1.384 6.874,-2.225 10.62,-2.423 0.936,-3.194 1.229,-6.63 0.714,-10.138 C 45.452,7.342 33.357,-1.654 20.35,0.255 7.342,2.166 -1.655,14.258 0.256,27.268 c 1.555,10.597 9.872,18.529 19.933,20.072 1.915,-3.584 4.492,-6.754 7.566,-9.355 z M 30.188,11.29 c 2.125,-0.312 4.1,1.158 4.413,3.282 0.312,2.125 -1.157,4.101 -3.283,4.413 -2.125,0.313 -4.101,-1.156 -4.413,-3.282 -0.311,-2.125 1.158,-4.101 3.283,-4.413 z m -16.09,2.363 c 2.125,-0.312 4.1,1.159 4.412,3.283 0.313,2.125 -1.157,4.1 -3.282,4.413 -2.126,0.312 -4.101,-1.157 -4.413,-3.283 -0.313,-2.126 1.158,-4.102 3.283,-4.413 z"
         id="path356" />
      <path
         style="fill:#0000c2;fill-opacity:1"
         d="M 78.682,0.133 C 65.606,-1.242 53.894,8.245 52.517,21.319 c -0.348,3.311 0.011,6.532 0.938,9.522 10.14,1.622 18.666,8.002 23.247,16.76 C 88.523,47.362 98.601,38.365 99.867,26.299 101.244,13.223 91.758,1.508 78.682,0.133 Z m 2.523,16.591 c 0.225,-2.137 2.136,-3.686 4.273,-3.461 2.138,0.225 3.686,2.138 3.464,4.275 -0.227,2.136 -2.138,3.685 -4.275,3.46 -2.138,-0.223 -3.688,-2.139 -3.462,-4.274 z M 65.029,15.023 c 0.227,-2.137 2.14,-3.687 4.275,-3.461 2.138,0.224 3.686,2.137 3.461,4.274 -0.224,2.136 -2.137,3.687 -4.274,3.46 -2.137,-0.224 -3.683,-2.137 -3.462,-4.273 z m 9.626,23.41 C 67.144,37.643 61.535,32.47 62.122,26.878 l 27.192,2.86 c -0.587,5.59 -7.153,9.484 -14.659,8.695 z"
         id="path358" />
      <path
         style="fill:#0000c2;fill-opacity:1"
         d="M 47.862,90.355 C 63.306,90.552 75.992,78.193 76.192,62.749 76.391,47.303 64.031,34.618 48.585,34.417 33.138,34.216 20.453,46.577 20.253,62.023 20.053,77.47 32.415,90.154 47.862,90.355 Z M 57.951,49.047 c 2.523,0.031 4.539,2.104 4.511,4.628 -0.033,2.523 -2.106,4.543 -4.63,4.51 -2.524,-0.033 -4.544,-2.104 -4.511,-4.628 0.036,-2.525 2.107,-4.543 4.63,-4.51 z m 6.263,18.862 C 64.129,74.512 56.869,79.774 48,79.659 39.128,79.546 32.006,74.096 32.092,67.492 Z M 38.844,48.798 c 2.523,0.031 4.541,2.104 4.509,4.631 -0.033,2.523 -2.104,4.541 -4.627,4.508 -2.526,-0.033 -4.542,-2.104 -4.51,-4.628 0.032,-2.524 2.105,-4.544 4.628,-4.511 z"
         id="path360" />
    </g>
    <g
       transform="matrix(0.05840692,0,0,0.05837385,134.97243,153.47533)"
       id="g398"
       style="fill:#ffb900;fill-opacity:1">
      <g
         style="fill:#ffb900;fill-opacity:1"
         id="g383">
        <path
           style="fill:#ffb900;fill-opacity:1"
           d="m 255.3,160.4 c 12.9,-9.1 21.4,-24.1 21.4,-41.1 0,-27.7 -22.5,-50.2 -50.2,-50.2 -27.7,0 -50.2,22.5 -50.2,50.2 0,17 8.5,32 21.4,41.1 -28.1,19.6 -48.7,67.2 -52,124.2 -0.1,2.1 0.7,4.1 2.3,5.4 12.7,11.1 43.1,18.9 78.5,18.9 35.4,0 65.8,-7.8 78.5,-18.9 1.5,-1.3 2.4,-3.3 2.3,-5.4 -3.3,-57 -24,-104.5 -52,-124.2 z"
           id="path375" />
        <path
           style="fill:#ffb900;fill-opacity:1"
           d="m 328.3,110.4 c 12.9,-9.1 21.4,-24.1 21.4,-41.1 0,-27.7 -22.5,-50.2 -50.2,-50.2 -27.3,0 -49.5,21.8 -50.2,48.9 19.6,8.8 33.3,28.5 33.3,51.3 0,15.6 -6.5,30.5 -17.8,41 22.6,19.5 39.1,55.4 45.7,98.4 30.6,-1.4 56.1,-8.7 67.5,-18.6 1.5,-1.3 2.4,-3.3 2.3,-5.4 C 377,177.5 356.4,130 328.3,110.4 Z"
           id="path377" />
        <path
           style="fill:#ffb900;fill-opacity:1"
           d="m 123.5,110.5 c -12.9,-9.1 -21.4,-24.1 -21.4,-41.1 0,-27.7 22.5,-50.2 50.2,-50.2 27.3,0 49.5,21.8 50.2,48.9 -19.6,8.8 -33.3,28.5 -33.3,51.3 0,15.6 6.5,30.5 17.8,41 -22.6,19.5 -39.1,55.4 -45.7,98.4 -30.6,-1.4 -56.1,-8.7 -67.5,-18.6 -1.5,-1.3 -2.4,-3.3 -2.3,-5.4 3.3,-57.1 23.9,-104.7 52,-124.3 z"
           id="path379" />
        <path
           style="fill:#ffb900;fill-opacity:1"
           d="m 374.8,125.6 c -10.6,-6.6 -22.2,-12.4 -34.5,-17.3 -0.6,0.7 -1.3,1.3 -2,1.9 7.5,6.5 14.3,14.7 20.3,24.5 2.6,1.5 5.2,3 7.7,4.5 36.1,22.4 55.9,51.7 55.9,82.6 0,30.9 -19.9,60.2 -55.9,82.6 -37.2,23.1 -86.9,35.8 -139.9,35.8 -53,0 -102.7,-12.7 -139.9,-35.8 C 50.4,282 30.6,252.7 30.6,221.8 c 0,-30.9 19.9,-60.2 55.9,-82.6 2.4,-1.5 4.9,-3 7.4,-4.4 6,-9.7 12.8,-18 20.3,-24.5 -0.7,-0.6 -1.3,-1.3 -2,-2 -12.2,4.9 -23.7,10.7 -34.2,17.2 -40.9,25.4 -63.5,59.6 -63.5,96.2 0,36.6 22.5,70.8 63.5,96.2 39.7,24.7 92.4,38.2 148.3,38.2 55.9,0 108.6,-13.6 148.3,-38.2 40.9,-25.4 63.5,-59.6 63.5,-96.2 0,-36.6 -22.3,-70.7 -63.3,-96.1 z"
           id="path381" />
      </g>
    </g>
    <g
       transform="matrix(0.18908042,0,0,0.18897338,94.056712,135.08574)"
       id="g435"
       style="fill:#000000;stroke:#000000;stroke-opacity:1">
      <g
         style="stroke:#000000;stroke-opacity:1"
         display="none"
         id="g402">
        <rect
           style="stroke:#000000;stroke-opacity:1"
           x="-4.0110002"
           y="-246.52"
           display="inline"
           fill="#000000"
           stroke="#000000"
           stroke-linecap="round"
           stroke-linejoin="round"
           stroke-miterlimit="10"
           width="1216.349"
           height="602.74701"
           id="rect400" />
      </g>
      <g
         style="stroke:#000000;stroke-opacity:1"
         id="g416">
        <polygon
           style="fill:#00002e;fill-opacity:1;stroke:#000000;stroke-opacity:1"
           points="72.872,11.873 63.683,11.873 69.102,33.246 91.73,33.246 "
           id="polygon404" />
        <polygon
           style="fill:#000002;fill-opacity:1;stroke:#000000;stroke-opacity:1"
           points="59.575,11.944 59.854,11.873 37.906,11.873 38.185,11.944 32.784,33.246 64.976,33.246 "
           id="polygon406" />
        <polygon
           style="fill:#00002e;fill-opacity:1;stroke:#000000;stroke-opacity:1"
           points="93.524,37.246 69.012,37.246 50.98,87.69 "
           id="polygon408" />
        <polygon
           style="fill:#0a0000;fill-opacity:1;stroke:#000000;stroke-opacity:1"
           points="46.936,88.127 28.748,37.246 6.476,37.246 "
           id="polygon410" />
        <polygon
           style="fill:#00012e;fill-opacity:1;stroke:#000000;stroke-opacity:1"
           points="48.88,83.682 64.764,37.246 32.995,37.246 "
           id="polygon412" />
        <polygon
           style="fill:#000000;fill-opacity:1;stroke:#000000;stroke-width:0.999575;stroke-miterlimit:4;stroke-dasharray:none;stroke-opacity:1"
           points="34.077,11.873 24.903,11.873 8.028,33.246 28.657,33.246 "
           id="polygon414" />
      </g>
    </g>
    <g
       transform="matrix(0.07349537,0,0,0.07345376,90.239356,86.713143)"
       id="g451"
       style="fill:#ba0000;fill-opacity:1">
      <path
         style="fill:#ba0000;fill-opacity:1"
         id="path437"
         d="m 310.518,189.646 h -36.372 l -27.021,22.403 v -50.903 h -0.616 L 215.583,58.081 V 38.616 h 5.924 c 0.654,0 1.185,-0.531 1.185,-1.185 0,-0.655 -0.53,-1.183 -1.185,-1.183 h -5.924 v -6.655 c 0,-0.654 -0.529,-1.185 -1.185,-1.185 -0.653,0 -1.184,0.531 -1.184,1.185 v 6.655 h -5.906 c -0.652,0 -1.186,0.528 -1.186,1.183 0,0.654 0.533,1.185 1.186,1.185 h 5.906 v 19.465 l -30.916,103.065 v 16.387 H 157.11 l -14.331,24.916 v -36.295 l -30.356,-37.71 H 59.388 l -30.355,37.71 V 275.086 L 197.7,275.073 v -44.438 c 0,-7.694 6,-13.81 13.553,-14.328 7.536,0.501 13.544,6.634 13.544,14.328 v 44.438 H 337.55 V 212.05 Z M 53.514,211.209 H 41.24 v -19.271 h 12.274 z m 17.475,0 H 58.715 v -19.271 h 12.273 v 19.271 z m 40.449,0 H 99.184 v -19.271 h 12.254 z m 0,-23.838 H 99.184 v -19.286 h 12.254 z m 17.468,23.838 H 116.65 v -19.271 h 12.255 v 19.271 z m 0,-23.838 H 116.65 v -19.286 h 12.255 v 19.286 z m 36.324,54.654 H 152.958 V 222.72 h 12.272 z m 39.094,-52.379 h -11.57 v -14.367 c 0,-3.184 2.568,-5.771 5.781,-5.771 3.212,0 5.779,2.587 5.779,5.771 v 14.367 z m 21.686,0 h -11.602 v -14.367 c 0,-3.184 2.599,-5.771 5.812,-5.771 3.184,0 5.779,2.587 5.779,5.771 v 14.367 z m 45.539,52.379 H 259.266 V 222.72 h 12.283 z m 17.472,0 H 276.75 V 222.72 h 12.271 z m 36.499,0 H 313.267 V 222.72 h 12.253 z"
         fill="#000000" />
    </g>
    <path
       sodipodi:nodetypes="cc"
       id="path477"
       d="m 103.90621,133.58659 c -1.43074,-8.59513 -0.45516,-19.68885 -0.2599,-21.8876"
       style="fill:none;fill-opacity:1;stroke:#ff0000;stroke-width:0.999717;stroke-linecap:butt;stroke-linejoin:miter;stroke-miterlimit:4;stroke-dasharray:none;stroke-opacity:1;marker-end:url(#Arrow1Mend)" />
    <path
       sodipodi:nodetypes="cc"
       id="path1754"
       d="m 112.69886,138.38387 c -3.31044,-6.46241 21.25316,-8.19543 21.26234,-8.19535"
       style="fill:none;stroke:#ff7900;stroke-width:0.999717;stroke-linecap:butt;stroke-linejoin:miter;stroke-miterlimit:4;stroke-dasharray:none;stroke-opacity:1;marker-end:url(#marker1758)" />
    <path
       sodipodi:nodetypes="cc"
       id="path1826"
       d="m 111.26893,149.17776 c 7.10672,5.297 14.19978,8.9949 21.2819,11.2936"
       style="fill:none;stroke:#eabd00;stroke-width:0.999717;stroke-linecap:butt;stroke-linejoin:miter;stroke-miterlimit:4;stroke-dasharray:none;stroke-opacity:1;marker-end:url(#marker1830)" />
    <path
       sodipodi:nodetypes="cc"
       id="path1892"
       d="m 103.47324,154.07499 c 1.45935,7.89552 1.05138,14.59173 0.0318,20.88816"
       style="fill:none;stroke:#00ff00;stroke-width:0.999717;stroke-linecap:butt;stroke-linejoin:miter;stroke-miterlimit:4;stroke-dasharray:none;stroke-opacity:1;marker-end:url(#marker1896)" />
    <path
       sodipodi:nodetypes="ccc"
       id="path1988"
       d="m 96.800893,148.47816 c -8.050575,8.69507 -15.312575,9.6945 -22.476677,9.79445 v 0"
       style="fill:none;stroke:#0091ff;stroke-width:0.999717;stroke-linecap:butt;stroke-linejoin:miter;stroke-miterlimit:4;stroke-dasharray:none;stroke-opacity:1;marker-end:url(#marker1600)" />
    <path
       sodipodi:nodetypes="ccc"
       id="path2084"
       d="M 93.41529,140.18285 C 77.528061,125.49118 77.738616,131.08801 71.841866,128.9892 v 0"
       style="fill:none;fill-opacity:1;stroke:#ff00c1;stroke-width:0.999717;stroke-linecap:butt;stroke-linejoin:miter;stroke-miterlimit:4;stroke-dasharray:none;stroke-opacity:1;marker-end:url(#marker1672)" />
    <text
       transform="scale(1.0002832,0.99971689)"
       id="text2194"
       y="80.564445"
       x="104.90131"
       style="font-style:normal;font-weight:normal;font-size:4.77549px;line-height:1.25;font-family:sans-serif;fill:#000000;fill-opacity:1;stroke:none;stroke-width:0.119388"
       xml:space="preserve"><tspan
         style="text-align:center;text-anchor:middle;stroke-width:0.119388"
         y="80.564445"
         x="104.90131"
         id="tspan2192"
         sodipodi:role="line">a coding</tspan><tspan
         id="tspan2196"
         style="text-align:center;text-anchor:middle;stroke-width:0.119388"
         y="86.533806"
         x="104.90131"
         sodipodi:role="line">community</tspan></text>
    <text
       transform="scale(1.0002832,0.99971689)"
       xml:space="preserve"
       style="font-style:normal;font-weight:normal;font-size:4.77549px;line-height:1.25;font-family:sans-serif;fill:#000000;fill-opacity:1;stroke:none;stroke-width:0.119388"
       x="148.52933"
       y="101.74595"
       id="text2194-3"><tspan
         sodipodi:role="line"
         x="148.52933"
         y="101.74595"
         style="text-align:center;text-anchor:middle;stroke-width:0.119388"
         id="tspan2196-7">coding</tspan><tspan
         id="tspan2221"
         sodipodi:role="line"
         x="148.52933"
         y="107.71531"
         style="text-align:center;text-anchor:middle;stroke-width:0.119388">classes</tspan><tspan
         id="tspan2223"
         sodipodi:role="line"
         x="148.52933"
         y="113.68468"
         style="text-align:center;text-anchor:middle;stroke-width:0.119388">daily</tspan></text>
    <text
       transform="scale(1.0002832,0.99971689)"
       id="text2194-3-5"
       y="179.78635"
       x="148.82204"
       style="font-style:normal;font-weight:normal;font-size:4.77549px;line-height:1.25;font-family:sans-serif;fill:#000000;fill-opacity:1;stroke:none;stroke-width:0.119388"
       xml:space="preserve"><tspan
         style="text-align:center;text-anchor:middle;stroke-width:0.119388"
         y="179.78635"
         x="148.82204"
         sodipodi:role="line"
         id="tspan2223-6">small</tspan><tspan
         id="tspan2254"
         style="text-align:center;text-anchor:middle;stroke-width:0.119388"
         y="185.75571"
         x="148.82204"
         sodipodi:role="line">class</tspan><tspan
         id="tspan2256"
         style="text-align:center;text-anchor:middle;stroke-width:0.119388"
         y="191.72507"
         x="148.82204"
         sodipodi:role="line">sizes</tspan></text>
    <text
       transform="scale(1.0002832,0.99971689)"
       xml:space="preserve"
       style="font-style:normal;font-weight:normal;font-size:4.77549px;line-height:1.25;font-family:sans-serif;fill:#000000;fill-opacity:1;stroke:none;stroke-width:0.119388"
       x="102.57896"
       y="201.03033"
       id="text2194-3-5-2"><tspan
         sodipodi:role="line"
         x="102.57896"
         y="201.03033"
         style="text-align:center;text-anchor:middle;stroke-width:0.119388"
         id="tspan2256-2">badges</tspan><tspan
         id="tspan2289"
         sodipodi:role="line"
         x="102.57896"
         y="206.99969"
         style="text-align:center;text-anchor:middle;stroke-width:0.119388">and roles</tspan></text>
    <text
       transform="scale(1.0002832,0.99971689)"
       id="text2194-3-5-2-7"
       y="181.53586"
       x="59.858936"
       style="font-style:normal;font-weight:normal;font-size:4.77549px;line-height:1.25;font-family:sans-serif;fill:#000000;fill-opacity:1;stroke:none;stroke-width:0.119388"
       xml:space="preserve"><tspan
         style="text-align:center;text-anchor:middle;stroke-width:0.119388"
         y="181.53586"
         x="59.858936"
         sodipodi:role="line"
         id="tspan2289-9">make</tspan><tspan
         id="tspan2318"
         style="text-align:center;text-anchor:middle;stroke-width:0.119388"
         y="187.50522"
         x="59.858936"
         sodipodi:role="line">new friends</tspan></text>
    <text
       transform="scale(1.0002832,0.99971689)"
       xml:space="preserve"
       style="font-style:normal;font-weight:normal;font-size:4.77549px;line-height:1.25;font-family:sans-serif;fill:#000000;fill-opacity:1;stroke:none;stroke-width:0.119388"
       x="59.269215"
       y="106.24467"
       id="text2194-3-5-2-7-3"><tspan
         id="tspan2345"
         sodipodi:role="line"
         x="59.269215"
         y="106.24467"
         style="text-align:center;text-anchor:middle;stroke-width:0.119388">developer</tspan><tspan
         id="tspan2349"
         sodipodi:role="line"
         x="59.269215"
         y="112.21403"
         style="text-align:center;text-anchor:middle;stroke-width:0.119388">mentors</tspan></text>
  </g>
</svg>
